<svg height="512pt" fill='#FFFF' viewBox="0 0 512 512.01722" width="512pt" xmlns="http://www.w3.org/2000/svg"><path d="m373.632812 38.050781c1.007813-2.027343 1.171876-4.371093.449219-6.519531-.71875-2.144531-2.261719-3.917969-4.289062-4.925781-71.707031-35.472657-155.859375-35.472657-227.566407 0-3.542968 1.769531-5.40625 5.738281-4.5 9.59375s4.347657 6.578125 8.304688 6.578125c1.316406.007812 2.613281-.28125 3.796875-.851563 66.917969-33.101562 145.445313-33.101562 212.363281 0 2.03125 1.003907 4.378906 1.160157 6.523438.433594 2.148437-.726563 3.917968-2.277344 4.917968-4.308594zm0 0"/><path d="m473.976562 138.386719c-2.027343 1.007812-3.570312 2.777343-4.289062 4.925781-.722656 2.144531-.558594 4.488281.449219 6.515625 16.429687 32.980469 24.925781 69.34375 24.804687 106.1875 0 131.960937-106.972656 238.933594-238.933594 238.933594-131.957031 0-238.929687-106.972657-238.929687-238.933594-.113281-36.847656 8.390625-73.210937 24.832031-106.1875 1.382813-2.734375 1.195313-6-.492187-8.554687-1.691407-2.558594-4.617188-4.011719-7.675781-3.8125-3.058594.195312-5.773438 2.019531-7.117188 4.773437-17.617188 35.335937-26.734375 74.300781-26.6171875 113.78125 0 141.386719 114.6171875 256 255.9999995 256 141.386719 0 256-114.613281 256-256 .128907-39.480469-8.976562-78.445313-26.589843-113.78125-1.003907-2.027344-2.777344-3.574219-4.921875-4.296875-2.148438-.722656-4.492188-.558594-6.519532.449219zm0 0"/><path d="m440.398438 166.964844c-1.328126-2.746094-4.023438-4.570313-7.0625-4.792969-3.039063-.21875-5.96875 1.199219-7.679688 3.722656-1.710938 2.523438-1.949219 5.765625-.617188 8.511719 6.285157 12.953125 11.050782 26.597656 14.199219 40.652344l-16.640625 2.933594c-4.359375.765624-7.414062 4.734374-7.027344 9.148437.382813 4.410156 4.078126 7.792969 8.503907 7.789063.5 0 1-.042969 1.492187-.125l16.582032-2.929688c2.132812 16.035156 2.132812 32.28125 0 48.316406l-16.574219-2.925781c-4.640625-.820313-9.070313 2.277344-9.890625 6.921875-.816406 4.640625 2.28125 9.066406 6.921875 9.886719l16.589843 2.929687c-3.53125 15.777344-9.097656 31.027344-16.5625 45.371094l-14.507812-8.398438c-2.640625-1.546874-5.910156-1.5625-8.566406-.035156-2.65625 1.523438-4.289063 4.355469-4.28125 7.417969.003906 3.0625 1.652344 5.882813 4.3125 7.398437l14.507812 8.386719c-8.726562 13.605469-19.15625 26.035157-31.042968 36.984375l-10.777344-12.84375c-1.9375-2.417968-5.027344-3.597656-8.082032-3.082031-3.054687.515625-5.589843 2.644531-6.625 5.566406-1.035156 2.917969-.40625 6.167969 1.640626 8.492188l10.769531 12.796875c-12.835938 9.847656-26.890625 17.992187-41.8125 24.238281l-5.761719-15.839844c-1-2.921875-3.5-5.074219-6.535156-5.632812-3.039063-.554688-6.140625.574219-8.109375 2.953125s-2.5 5.636718-1.386719 8.515625l5.765625 15.925781c-15.4375 4.835938-31.4375 7.648438-47.597656 8.359375v-16.894531c0-4.710938-3.820313-8.53125-8.535157-8.53125-4.710937 0-8.53125 3.820312-8.53125 8.53125v16.855468c-16.160156-.703124-32.160156-3.5-47.597656-8.320312l5.777344-15.863281c1.109375-2.882813.578125-6.140625-1.390625-8.519531-1.96875-2.378907-5.070313-3.503907-8.105469-2.949219-3.039062.554687-5.539062 2.707031-6.539062 5.628906l-5.761719 15.839844c-14.921875-6.246094-28.976563-14.390625-41.8125-24.234375l10.769531-12.800782c2.046875-2.324218 2.675782-5.574218 1.640625-8.492187-1.035156-2.917969-3.570312-5.046875-6.625-5.5625-3.050781-.515625-6.144531.664063-8.082031 3.082031l-10.777344 12.839844c-11.882812-10.949219-22.316406-23.378906-31.042968-36.980469l14.507812-8.390625c2.660156-1.511718 4.308594-4.335937 4.316406-7.398437.003906-3.0625-1.628906-5.894531-4.285156-7.417969-2.65625-1.527344-5.925781-1.511719-8.566406.039062l-14.507813 8.394532c-7.46875-14.367188-13.039062-29.648438-16.5625-45.457032l16.589844-2.925781c3.003906-.53125 5.496094-2.625 6.535156-5.488281 1.042969-2.867188.476563-6.070312-1.484375-8.40625-1.960937-2.335938-5.015625-3.445312-8.019531-2.917969l-16.574219 2.929688c-2.125-16.035157-2.125-32.28125 0-48.316407l16.589844 2.925782c.492188.085937.992188.128906 1.492188.128906 4.429687 0 8.121093-3.382812 8.507812-7.792969.382812-4.410156-2.667969-8.382812-7.03125-9.144531l-16.664062-2.910156c3.132812-14.046875 7.894531-27.679688 14.191406-40.621094 1.332031-2.742188 1.101562-5.988281-.605469-8.515625-1.710937-2.527344-4.640625-3.953125-7.683594-3.734375-3.042969.214844-5.738281 2.039062-7.070312 4.785156-13.511719 27.734375-20.488281 58.195313-20.394531 89.042969.015624 11.863281 1.058593 23.699219 3.121093 35.378906v.191407c0 .066406.0625.125.078125.203124 4.125 23.277344 12.285156 45.652344 24.105469 66.125.078125.160157.078125.339844.171875.503907.144531.210937.300781.414062.46875.605469 11.808594 20.191406 26.96875 38.230468 44.824219 53.339843.171875.171875.25.386719.429687.539063.175782.152344.390625.195312.570313.332031 75.867187 63.441406 186.277343 63.441406 262.144531 0 .179688-.136719.390625-.1875.570312-.332031.179688-.144532.257813-.367188.425782-.539063 17.859375-15.109375 33.015625-33.148437 44.828125-53.339843.152343-.195313.296875-.394532.425781-.605469.09375-.164063.09375-.34375.171875-.503907 11.808594-20.472656 19.957031-42.851562 24.070313-66.125 0-.078124.0625-.128906.078124-.203124.015626-.078126 0-.128907 0-.191407 2.058594-11.679687 3.101563-23.515625 3.113282-35.378906.070312-30.851563-6.910156-61.3125-20.410156-89.050781zm0 0"/><path d="m38.785156 38.792969c-21 21.007812-5.035156 67.414062 15.972656 88.378906 9.917969 10.058594 23.296876 15.957031 37.410157 16.496094h1.851562c4.03125-.042969 8.039063-.558594 11.949219-1.535157l107.964844 108.03125c-.332032 1.933594-.527344 3.890626-.589844 5.851563.0625 1.964844.257812 3.921875.589844 5.855469l-12.253906 12.261718c-10.003907 10-10.003907 26.214844 0 36.214844 10 10 26.214843 10 36.214843 0l12.253907-12.253906c1.9375.332031 3.894531.527344 5.859374.589844 1.96875-.0625 3.925782-.257813 5.863282-.589844l12.296875 12.296875c10.078125 9.851563 26.1875 9.816406 36.214843-.085937 9.832032-10.058594 9.8125-26.132813-.042968-36.171876l-12.253906-12.261718c.332031-1.933594.527343-3.890625.589843-5.855469-.0625-1.960937-.257812-3.917969-.589843-5.851563l109.894531-109.902343c9.726562 4.734375 21.390625 2.753906 29.011719-4.921875l60.339843-60.339844c2.359375-2.105469 3.363281-5.34375 2.609375-8.414062-.757812-3.070313-3.152344-5.46875-6.222656-6.234376-3.066406-.765624-6.308594.226563-8.417969 2.582032l-60.332031 60.332031c-3.328125 3.308594-8.703125 3.308594-12.03125 0l-6.042969-6.042969 66.367188-66.363281c2.214843-2.144531 3.105469-5.316406 2.324219-8.300781-.78125-2.980469-3.109376-5.3125-6.09375-6.09375-2.984376-.78125-6.15625.109375-8.296876 2.328125l-66.367187 66.363281-6.039063-6.042969c-3.308593-3.328125-3.308593-8.703125 0-12.03125l60.328126-60.339843c3.234374-3.347657 3.191406-8.667969-.101563-11.960938s-8.613281-3.335938-11.960937-.105469l-60.332032 60.339844c-7.683594 7.617187-9.671875 19.28125-4.949218 29.015625l-109.902344 109.90625c-1.9375-.328125-3.894532-.523438-5.863282-.585938-1.964843.0625-3.921874.257813-5.859374.585938l-107.914063-107.910156c1.097656-4.527344 1.578125-9.183594 1.425781-13.839844-.542968-14.121094-6.445312-27.5-16.503906-37.421875-21.007812-21.007813-67.414062-36.992187-88.371094-15.972656zm53.972656 87.824219c-9.792968-.402344-19.0625-4.519532-25.933593-11.511719-16.5625-16.570313-27.621094-52.589844-15.972657-64.246094 4.207032-3.515625 9.621094-5.246094 15.085938-4.820313 18.304688 1.019532 35.683594 8.371094 49.160156 20.792969 6.992188 6.871094 11.105469 16.140625 11.511719 25.933594.484375 9.117187-2.925781 18.011719-9.382813 24.46875-6.453124 6.457031-15.351562 9.867187-24.46875 9.382813zm133.070313 171.664062c-1.601563 1.605469-3.777344 2.507812-6.042969 2.507812s-4.441406-.902343-6.042968-2.507812c-1.601563-1.597656-2.503907-3.773438-2.503907-6.039062 0-2.269532.902344-4.441407 2.503907-6.042969l6.699218-6.699219c3.179688 4.792969 7.289063 8.898438 12.085938 12.074219zm72.40625-12.117188c2.164063 2.152344 3.015625 5.292969 2.234375 8.246094-.78125 2.949219-3.074219 5.257813-6.019531 6.058594-2.945313.796875-6.09375-.035156-8.257813-2.1875l-6.699218-6.695312c4.796874-3.183594 8.902343-7.292969 12.085937-12.085938zm84.476563-168.957031 12.085937 12.082031-103.253906 103.253907c-3.179688-4.796875-7.289063-8.910157-12.082031-12.09375zm-101.101563 138.808594c0 14.140625-11.460937 25.601563-25.601563 25.601563-14.136718 0-25.597656-11.460938-25.597656-25.601563 0-14.136719 11.460938-25.597656 25.597656-25.597656 14.140626 0 25.601563 11.460937 25.601563 25.597656zm-49.082031-35.558594c-4.796875 3.179688-8.90625 7.289063-12.085938 12.085938l-97.789062-97.800781c4.777344-3.199219 8.890625-7.289063 12.117187-12.050782zm0 0"/><path d="m311.476562 103.664062c2.128907.769532 4.476563.664063 6.527344-.296874 2.050782-.960938 3.632813-2.695313 4.402344-4.824219l5.769531-15.847657c3.175781 1.332032 6.332031 2.75 9.445313 4.269532 4.242187 2.058594 9.351562.289062 11.410156-3.953125 2.058594-4.242188.289062-9.347657-3.949219-11.410157-6.1875-2.992187-12.484375-5.613281-18.859375-7.953124-.058594 0-.101562-.074219-.164062-.101563-.058594-.023437-.101563 0-.152344 0-45.160156-16.441406-94.667969-16.441406-139.828125 0h-.101563l-.101562.070313c-6.4375 2.339843-12.75 5.007812-18.917969 7.984374-4.242187 2.0625-6.007812 7.171876-3.949219 11.414063 2.0625 4.242187 7.171876 6.007813 11.414063 3.949219 3.117187-1.519532 6.265625-2.941406 9.4375-4.269532l5.769531 15.855469c1 2.921875 3.5 5.074219 6.539063 5.632813 3.035156.554687 6.136719-.574219 8.105469-2.953125 1.972656-2.378907 2.503906-5.636719 1.390624-8.515625l-5.761718-15.828125c15.425781-4.859375 31.417968-7.667969 47.574218-8.363281v16.828124c0 4.710938 3.820313 8.53125 8.53125 8.53125 4.714844 0 8.535157-3.820312 8.535157-8.53125v-16.828124c16.160156.699218 32.15625 3.519531 47.582031 8.386718l-5.769531 15.8125c-.773438 2.128906-.667969 4.480469.292969 6.53125.960937 2.054688 2.695312 3.640625 4.828124 4.410156zm0 0"/></svg>