<svg id="Capa_1" enable-background="new 0 0 512 512" fill='#FFFF' height="512" viewBox="0 0 512 512" width="512" xmlns="http://www.w3.org/2000/svg"><g><path d="m467 300h-6v-95c0-41.344-24.022-77.177-58.838-94.292 11.637-11.751 18.838-27.902 18.838-45.708 0-35.841-29.159-65-65-65s-65 29.159-65 65c0 14.266 4.631 27.464 12.453 38.195-17.002 3.508-33.371 9.863-48.38 18.869-8.653 5.192-18.562 7.936-28.651 7.936h-5.692c6.488-10.112 10.27-22.119 10.27-35 0-35.841-29.159-65-65-65-2.514 0-4.991.158-7.432.438-6.067-17.686-22.851-30.438-42.568-30.438-24.813 0-45 20.187-45 45 0 19.717 12.753 36.494 30.439 42.558-.28 2.444-.439 4.924-.439 7.442 0 12.881 3.782 24.888 10.271 35h-45.271c-24.813 0-45 20.187-45 45 0 20.698 14.051 38.167 33.113 43.395-2.031 8.543-3.113 17.449-3.113 26.605v55h-6c-24.813 0-45 20.187-45 45v152c0 8.284 6.716 15 15 15s15-6.716 15-15v-152c0-8.271 6.729-15 15-15h26v65c0 8.284 6.716 15 15 15h6.398l8.673 88.463c.753 7.681 7.211 13.537 14.929 13.537h100c7.718 0 14.176-5.856 14.929-13.537l8.673-88.463h6.398c8.284 0 15-6.716 15-15v-65h20v167c0 8.284 6.716 15 15 15h120c8.284 0 15-6.716 15-15v-167h36c8.271 0 15 6.729 15 15v152c0 8.284 6.716 15 15 15s15-6.716 15-15v-152c0-24.813-20.187-45-45-45zm-111-270c19.299 0 35 15.701 35 35s-15.701 35-35 35-35-15.701-35-35 15.701-35 35-35zm-85.493 117.789c19.395-11.638 41.603-17.789 64.223-17.789h21.27c41.355 0 75 33.645 75 75v95h-150v-55c0-34.397-15.185-65.311-39.197-86.404 10.099-1.843 19.831-5.483 28.704-10.807zm-35.185 48.116c-3.411 1.588-7.131 2.428-10.989 2.428-4.733 0-9.328-1.323-13.655-3.934-3.558-2.146-7.846-2.721-11.847-1.584-3.998 1.136-7.345 3.879-9.244 7.576-4.627 9.011-13.665 14.609-23.587 14.609s-18.96-5.598-23.587-14.608c-1.899-3.697-5.246-6.44-9.244-7.576-4-1.137-8.289-.562-11.847 1.584-4.327 2.61-8.922 3.934-13.655 3.934-3.858 0-7.578-.84-10.989-2.428 15.416-21.705 40.734-35.906 69.322-35.906s53.906 14.201 69.322 35.905zm-154.322 104.095v-55c0-7.612 1.021-14.987 2.907-22.012 7.396 3.47 15.498 5.345 23.76 5.345 5.439 0 10.864-.822 16.107-2.419 10.593 12.013 25.825 19.086 42.226 19.086s31.633-7.073 42.226-19.086c5.243 1.597 10.668 2.419 16.107 2.419 8.262 0 16.364-1.875 23.761-5.344 1.885 7.025 2.906 14.4 2.906 22.011v55zm20-255c0-8.271 6.729-15 15-15 6.77 0 12.5 4.51 14.36 10.682-7.425 4.888-13.79 11.253-18.678 18.678-6.172-1.86-10.682-7.59-10.682-14.36zm30 50c0-19.299 15.701-35 35-35s35 15.701 35 35-15.701 35-35 35-35-15.701-35-35zm-80 80c0-8.271 6.729-15 15-15h22.621c-9.415 8.579-17.403 18.697-23.565 29.952-7.832-.491-14.056-7-14.056-14.952zm71.543 235h28.456v72h-21.397zm79.855 72h-21.399v-72h28.458zm28.602-102h-130v-50h130zm170 102h-30v-107c0-8.284-6.716-15-15-15s-15 6.716-15 15v107h-30v-152h90z"/></g></svg>