<svg fill='#FFFF' height="512pt" viewBox="0 0 512 512" width="512pt" xmlns="http://www.w3.org/2000/svg"><path d="m504.734375 139.617188c4.226563-1.203126 7.265625-5.210938 7.265625-9.617188v-120c0-5.523438-4.476562-10-10-10h-442c-5.523438 0-10 4.476562-10 10v120c0 5.523438 4.476562 10 10 10h122.945312s-175.40625 46.308594-175.496093 46.332031c-2.101563.554688-4.019531 1.828125-5.347657 3.542969-1.34375 1.734375-2.101562 3.929688-2.101562 6.125v120c0 5.523438 4.476562 10 10 10h172.945312s-175.414062 46.308594-175.496093 46.332031c-2.101563.554688-4.015625 1.828125-5.347657 3.546875-1.339843 1.730469-2.101562 3.929688-2.101562 6.121094v120c0 5.523438 4.476562 10 10 10h442c5.523438 0 10-4.476562 10-10v-120c0-5.523438-4.476562-10-10-10h-122.945312l175.496093-46.332031c2.113281-.554688 4.035157-1.839844 5.367188-3.566407 1.328125-1.730468 2.082031-3.917968 2.082031-6.101562v-120c0-5.523438-4.476562-10-10-10h-172.945312s175.359374-46.296875 175.496093-46.332031c.0625-.015625.125-.03125.183594-.050781zm-434.734375-119.617188h60v100h-60zm80 0h20v28c0 5.523438 4.476562 10 10 10s10-4.476562 10-10v-28h20v58c0 5.523438 4.476562 10 10 10s10-4.476562 10-10v-58h20v28c0 5.523438 4.476562 10 10 10s10-4.476562 10-10v-28h20v58c0 5.523438 4.476562 10 10 10s10-4.476562 10-10v-58h20v28c0 5.523438 4.476562 10 10 10s10-4.476562 10-10v-28h20v58c0 5.523438 4.476562 10 10 10s10-4.476562 10-10v-58h20v28c0 5.523438 4.476562 10 10 10s10-4.476562 10-10v-28h20v58c0 5.523438 4.476562 10 10 10s10-4.476562 10-10v-58h22v100h-342zm292 472h-60v-100h20v30c0 5.511719 4.488281 10 10 10s10-4.488281 10-10v-30h20zm-80 0h-342v-100h20v28c0 5.523438 4.476562 10 10 10s10-4.476562 10-10v-28h20v58c0 5.523438 4.476562 10 10 10s10-4.476562 10-10v-58h20v28c0 5.523438 4.476562 10 10 10s10-4.476562 10-10v-28h20v58c0 5.523438 4.476562 10 10 10s10-4.476562 10-10v-58h20v28c0 5.523438 4.476562 10 10 10s10-4.476562 10-10v-28h20v58c0 5.523438 4.476562 10 10 10s10-4.476562 10-10v-58h20v28c0 5.523438 4.476562 10 10 10s10-4.476562 10-10v-28h20v58c0 5.523438 4.476562 10 10 10s10-4.476562 10-10v-58h22zm-111.296875-120h-163.648437l174.242187-46h163.648437zm241.296875-66h-472v-100h26v28c0 5.523438 4.476562 10 10 10s10-4.476562 10-10v-28h20v58c0 5.523438 4.476562 10 10 10s10-4.476562 10-10v-58h20v28c0 5.523438 4.476562 10 10 10s10-4.476562 10-10v-28h20v58c0 5.523438 4.476562 10 10 10s10-4.476562 10-10v-58h20v28c0 5.523438 4.476562 10 10 10s10-4.476562 10-10v-28h20v58c0 5.523438 4.476562 10 10 10s10-4.476562 10-10v-58h20v28c0 5.523438 4.476562 10 10 10s10-4.476562 10-10v-28h20v58c0 5.523438 4.476562 10 10 10s10-4.476562 10-10v-58h20v28c0 5.523438 4.476562 10 10 10s10-4.476562 10-10v-28h20v58c0 5.523438 4.476562 10 10 10s10-4.476562 10-10v-58h20v28c0 5.523438 4.476562 10 10 10s10-4.476562 10-10v-28h26zm-241.296875-120h-163.648437l174.242187-46h163.648437zm0 0"/><path d="m100 40c-5.519531 0-10 4.480469-10 10s4.480469 10 10 10 10-4.480469 10-10-4.480469-10-10-10zm0 0"/><path d="m100 80c-5.519531 0-10 4.480469-10 10s4.480469 10 10 10 10-4.480469 10-10-4.480469-10-10-10zm0 0"/><path d="m412 452c-5.511719 0-10 4.488281-10 10s4.488281 10 10 10 10-4.488281 10-10-4.488281-10-10-10zm0 0"/></svg>