<svg fill='#FFFF' height="512pt" viewBox="0 -113 512 512" width="512pt" xmlns="http://www.w3.org/2000/svg"><path d="m447.773438 133.265625c-3.03125 32.632813-12.019532 68.976563-33.925782 97.800781-16.453125 21.648438-38.746094 39.746094-66.496094 54.03125 69.246094-3.722656 130.5625-46.152344 158.011719-110.230468 1.25-2.917969 6.636719-17.300782 6.636719-17.300782s-34.300781-17.4375-64.226562-24.300781zm0 0"/><path d="m97.859375 231.070312c-21.890625-28.808593-30.886719-65.121093-33.921875-97.738281-29.773438 6.867188-63.9375 24.234375-63.9375 24.234375s5.386719 14.382813 6.636719 17.304688c27.40625 63.976562 88.574219 106.375 157.6875 110.210937-27.738281-14.28125-50.019531-32.375-66.464844-54.011719zm0 0"/><path d="m195.003906 258.132812c-28.898437-39.996093-43.546875-78.835937-43.546875-115.449218 0-23.171875 5.875-47.234375 17.507813-71.917969-37.324219-13.507813-74.199219-16.554687-74.199219-16.554687s-19.152344 101.144531 25.464844 159.859374c23.054687 30.339844 57.492187 48.285157 85.886719 58.585938-3.628907-4.488281-7.371094-9.34375-11.113282-14.523438zm0 0"/><path d="m416.9375 54.210938s-36.707031 3.03125-73.945312 16.464843c11.660156 24.714844 17.550781 48.808594 17.550781 72.007813 0 36.613281-14.648438 75.453125-43.546875 115.449218-3.699219 5.121094-7.402344 9.925782-10.992188 14.371094 28.316406-10.324218 62.527344-28.242187 85.472656-58.433594 44.617188-58.714843 25.460938-159.859374 25.460938-159.859374zm0 0"/><path d="m179.550781 142.683594c0 73.742187 76.449219 142.683594 76.449219 142.683594s76.449219-68.941407 76.449219-142.683594c0-73.742188-76.449219-142.683594-76.449219-142.683594s-76.449219 68.941406-76.449219 142.683594zm0 0"/></svg>