<svg fill='#FFFF' height="512pt" viewBox="-75 0 512 512" width="512pt" xmlns="http://www.w3.org/2000/svg"><path d="m171.359375 303.28125c-3.691406-3.042969-9.023437-3.042969-12.71875 0-5.617187 4.632812-33.640625 28.730469-33.640625 48.550781 0 21.597657 17.945312 39.167969 40 39.167969s40-17.570312 40-39.167969c0-19.820312-28.023438-43.917969-33.640625-48.550781zm-6.359375 67.71875c-11.027344 0-20-8.597656-20-19.167969 0-5.65625 9.472656-17.589843 20-27.492187 10.527344 9.90625 20 21.835937 20 27.492187 0 10.570313-8.972656 19.167969-20 19.167969zm0 0"/><path d="m280 429c-5.511719 0-10 4.488281-10 10s4.488281 10 10 10 10-4.488281 10-10-4.488281-10-10-10zm0 0"/><path d="m280 268c5.511719 0 10-4.488281 10-10s-4.488281-10-10-10-10 4.488281-10 10 4.488281 10 10 10zm0 0"/><path d="m337.035156 71.015625c4.960938-4.964844 7.464844-11.976563 7.464844-21.015625 0-19.90625-12.101562-30-35.964844-30-12.054687 0-26.804687 2.445312-38.492187 6.382812-1.800781.605469-3.484375 1.242188-5.097657 1.898438-.894531-15.746094-13.980468-28.28125-29.945312-28.28125h-140c-16.542969 0-30 13.457031-30 30v21.277344c-18.027344 4.132812-32.632812 18.027344-37.277344 36.59375-.148437.597656-.242187 1.203125-.277344 1.816406 0 0-2.417968 39.578125-2.425781 39.703125-.347656 5.671875 4.308594 10.609375 9.980469 10.609375h28.140625c-1.988281 8.695312-7.804687 16.152344-15.832031 20.164062l-19.667969 9.835938c-16.691406 8.34375-27.640625 26.070312-27.640625 44.722656v247.277344c0 27.570312 22.429688 50 50 50h230c27.570312 0 50-22.429688 50-50 0 0 0-247.113281 0-247.277344 0-18.765625-10.871094-36.339844-27.640625-44.722656l-19.667969-9.835938c-8.027344-4.011718-13.84375-11.46875-15.832031-20.164062h28.140625c5.621094 0 10.320312-5.023438 9.980469-10.609375l-2.425781-39.703125c-.035157-.613281-.128907-1.21875-.277344-1.816406-.722656-2.882813-1.6875-5.648438-2.863282-8.289063 9.09375.785157 17.429688 2.316407 25.25 7.25 10.992188 6.9375 16.335938 16.476563 16.335938 29.167969 0 5.523438 4.476562 10 10 10s10-4.476562 10-10c0-21.878906-11.1875-36.230469-23.964844-44.984375zm-28.5-31.015625c15.964844 0 15.964844 4.195312 15.964844 10s0 10-15.964844 10c-17.058594 0-36.109375-5.636719-42.535156-10 6.425781-4.363281 25.476562-10 42.535156-10zm-223.535156-10c0-5.515625 4.484375-10 10-10h140c5.515625 0 10 4.484375 10 10v20h-160zm225 278.5h-20v-10.5c0-5.511719-4.488281-10-10-10s-10 4.488281-10 10v10.5h-23.664062c-14.542969-31.671875-46.585938-52.5-81.835938-52.5s-67.292969 20.828125-81.835938 52.5h-62.664062v-88.5h290zm0 60h-72.402344c-3.949218 0-7.527344 2.324219-9.132812 5.933594-11.246094 25.25-36.355469 41.566406-63.964844 41.566406s-52.71875-16.316406-63.964844-41.566406c-1.605468-3.609375-5.183594-5.933594-9.132812-5.933594h-71.402344v-40h69.351562c4.199219 0 7.949219-2.621094 9.390626-6.5625 10.058593-27.476562 36.484374-45.9375 65.757812-45.9375s55.699219 18.460938 65.757812 45.9375c1.441407 3.941406 5.191407 6.5625 9.390626 6.5625h70.351562zm-232.191406 123.5 3.105468-12.425781c1.113282-4.460938 5.105469-7.574219 9.699219-7.574219h148.769531c4.597657 0 8.585938 3.113281 9.703126 7.574219l3.105468 12.425781zm202.191406 0h-7.191406l-4.320313-17.277344c-3.34375-13.378906-15.3125-22.722656-29.105469-22.722656h-148.765624c-13.792969 0-25.761719 9.34375-29.105469 22.722656l-4.320313 17.277344h-7.191406c-16.542969 0-30-13.457031-30-30v-73.5h65.171875c15.585937 29.058594 46.039063 47.5 79.328125 47.5s63.742188-18.441406 79.328125-47.5h26.171875v10.5c0 5.511719 4.488281 10 10 10s10-4.488281 10-10v-10.5h20v73.5c0 16.542969-13.457031 30-30 30zm13.417969-304.109375c5.449219 2.722656 9.832031 6.964844 12.71875 12.109375h-282.273438c2.886719-5.144531 7.269531-9.386719 12.722657-12.109375l19.667968-9.835937c14.261719-7.128907 24.339844-20.777344 26.960938-36.5l.257812-1.554688h163.058594l.257812 1.554688c2.621094 15.722656 12.699219 29.371093 26.957032 36.5zm-33.417969-67.890625v-20c0-5.523438-4.476562-10-10-10s-10 4.476562-10 10v20h-30v-20c0-5.523438-4.476562-10-10-10s-10 4.476562-10 10v20h-50v-20c0-5.523438-4.476562-10-10-10s-10 4.476562-10 10v20h-30v-20c0-5.523438-4.476562-10-10-10s-10 4.476562-10 10v20h-24.371094l1.71875-28.105469c3.621094-12.933593 15.378906-21.894531 28.882813-21.894531h177.539062c13.503907 0 25.261719 8.960938 28.882813 21.894531l1.71875 28.105469zm0 0"/></svg>