<?xml version="1.0" encoding="UTF-8"?>
<svg xmlns="http://www.w3.org/2000/svg" id="Icons" viewBox="0 0 74 74" width="512" height="512"><path d="M69.5,46.542H63.592a1,1,0,0,1,0-2h4.356L62.682,32.957a1,1,0,1,1,1.82-.828l5.909,13a1,1,0,0,1-.91,1.414Z"/><path d="M7.061,45.59A1,1,0,0,1,6.149,45a29.05,29.05,0,0,1-1.1-2.817,1,1,0,1,1,1.9-.632A27.293,27.293,0,0,0,7.97,44.176a1,1,0,0,1-.909,1.414Z"/><path d="M52.96,72H16.32a1,1,0,0,1-1-1v-.26a36.129,36.129,0,0,0-1.635-10.665,1,1,0,1,1,1.91-.591A38.177,38.177,0,0,1,17.312,70H51.96V64.82a4.916,4.916,0,0,1,4.91-4.91h1.7a4.029,4.029,0,0,0,4.02-4.03V45.54a1,1,0,1,1,2,0V55.88a6.031,6.031,0,0,1-6.02,6.03h-1.7a2.913,2.913,0,0,0-2.91,2.91V71A1,1,0,0,1,52.96,72Z"/><path d="M11.991,54.28a1,1,0,0,1-.9-.556c-.4-.813-.863-1.641-1.407-2.533a1,1,0,1,1,1.707-1.043c.575.943,1.064,1.822,1.493,2.688a1,1,0,0,1-.9,1.444Z"/><path d="M4.579,35.75a1,1,0,0,1-1-.928A31.5,31.5,0,0,1,3.738,28.7,30.623,30.623,0,0,1,30.571,2.2,30.276,30.276,0,0,1,54.41,9.775,30.588,30.588,0,0,1,64.59,32.54a1,1,0,0,1-2,0,28.585,28.585,0,0,0-9.514-21.274A28.3,28.3,0,0,0,30.79,4.184,28.606,28.606,0,0,0,5.723,28.941a29.487,29.487,0,0,0-.146,5.737,1,1,0,0,1-.925,1.07Z"/><path d="M33.623,41.928a1,1,0,0,1-.651-.241A16.638,16.638,0,0,1,26.862,29a16.636,16.636,0,0,1,6.11-12.688,1,1,0,0,1,1.3,0A16.636,16.636,0,0,1,40.384,29a16.631,16.631,0,0,1-6.11,12.689A1,1,0,0,1,33.623,41.928Zm0-23.513A14.511,14.511,0,0,0,28.862,29a14.517,14.517,0,0,0,4.761,10.585A14.513,14.513,0,0,0,38.384,29,14.511,14.511,0,0,0,33.623,18.415Z"/><path d="M41.689,45.435a12.453,12.453,0,0,1-8.86-3.774,1,1,0,0,1,1.414-1.414,10.565,10.565,0,0,0,14.493.565,11.656,11.656,0,0,0-3.587-3.188,1,1,0,0,1,.985-1.741,13.884,13.884,0,0,1,4.774,4.543,1,1,0,0,1-.155,1.282A13.325,13.325,0,0,1,41.689,45.435Z"/><path d="M25.383,45.435a13.319,13.319,0,0,1-9.064-3.727,1,1,0,0,1-.155-1.282,13.884,13.884,0,0,1,4.774-4.543,1,1,0,1,1,.985,1.741,11.668,11.668,0,0,0-3.587,3.188,10.565,10.565,0,0,0,14.493-.565,1,1,0,0,1,1.414,1.414A12.459,12.459,0,0,1,25.383,45.435Z"/><path d="M34.8,41.992q-.615,0-1.241-.04a1,1,0,0,1-.937-1,1.038,1.038,0,0,1,1.211-.99,14.348,14.348,0,0,0,11.33-4.156A14.273,14.273,0,0,0,49.078,25.1a14.449,14.449,0,0,0-9.193,2.929,1,1,0,1,1-1.219-1.586,16.683,16.683,0,0,1,11.415-3.3,1,1,0,0,1,.933.908A16.4,16.4,0,0,1,46.6,37.2,16.2,16.2,0,0,1,34.8,41.992Z"/><path d="M32.447,41.992a16.19,16.19,0,0,1-11.8-4.79,16.4,16.4,0,0,1-4.418-13.16,1,1,0,0,1,.933-.908,16.681,16.681,0,0,1,11.415,3.305,1,1,0,1,1-1.219,1.586A14.531,14.531,0,0,0,18.17,25.1a14.264,14.264,0,0,0,3.915,10.709,14.426,14.426,0,0,0,11.334,4.159,1.016,1.016,0,0,1,1.205.968v.022a1,1,0,0,1-.936,1Q33.063,41.993,32.447,41.992Z"/><path d="M33.536,51.468a1,1,0,0,1-.651-.241,18.377,18.377,0,0,1-4.607-7.163,1,1,0,0,1,1.895-.639,17.6,17.6,0,0,0,3.363,5.666A17.451,17.451,0,0,0,36.9,43.425a1,1,0,1,1,1.895.639,18.382,18.382,0,0,1-4.606,7.163A1,1,0,0,1,33.536,51.468Z"/><path d="M44.326,25.711a1,1,0,0,1-.986-.84,20.043,20.043,0,0,0-1.3-4.682c-1.173.36-3.04,1.1-3.758,2.119a1,1,0,0,1-1.633-1.157c1.479-2.086,5.193-3,5.612-3.095a1,1,0,0,1,.994.334c1.283,1.54,1.983,5.693,2.058,6.162a1,1,0,0,1-.828,1.147A1.077,1.077,0,0,1,44.326,25.711Z"/><path d="M22.92,25.711a.958.958,0,0,1-.16-.012,1,1,0,0,1-.828-1.147c.075-.469.775-4.622,2.058-6.162a1,1,0,0,1,.994-.334c.419.1,4.133,1.009,5.612,3.095a1,1,0,0,1-1.633,1.157c-.713-1.008-2.6-1.761-3.759-2.118a20.011,20.011,0,0,0-1.3,4.681A1,1,0,0,1,22.92,25.711Z"/></svg>
