<svg height="512pt" fill='#FFFF' viewBox="-26 0 512 512" width="512pt" xmlns="http://www.w3.org/2000/svg"><path d="m200.789062 512h4.011719c9.839844-.03125 19.179688-4.335938 25.597657-11.792969 6.417968 7.457031 15.761718 11.761719 25.601562 11.792969h4.011719c110.769531-.054688 200.589843-89.765625 200.789062-200.535156v-64c-.113281-66.28125-47.777343-122.925782-113.066406-134.363282 5.410156-3.929687 10.164063-8.691406 14.078125-14.113281 20.097656-28.109375 12.167969-65.128906 11.828125-66.691406-.6875-3.089844-3.027344-5.546875-6.085937-6.382813-53.757813-14.675781-86.902344 6.886719-106.152344 30.132813l1.902344-28.738281c.472656-7.070313-2.007813-14.019532-6.847657-19.195313-4.839843-5.175781-11.605469-8.113281-18.691406-8.113281h-14.730469c-7.085937 0-13.851562 2.9375-18.691406 8.113281-4.84375 5.175781-7.320312 12.125-6.847656 19.195313l1.902344 28.730468c-19.242188-23.246093-52.402344-44.800781-106.15625-30.132812-3.054688.835938-5.394532 3.292969-6.082032 6.382812-.34375 1.5625-8.269531 38.582032 11.828125 66.6875 3.910157 5.429688 8.664063 10.199219 14.078125 14.132813-65.285156 11.4375-112.953125 68.078125-113.066406 134.355469v64c.199219 110.769531 90.019531 200.480468 200.789062 200.535156zm156.960938-470.964844c2.5 16.691406-.996094 33.730469-9.871094 48.085938-10.472656 13.125-26.109375 21.078125-42.878906 21.8125h-15.480469c-11.289062-.007813-22.402343 2.828125-32.308593 8.242187l1.808593-27.304687c11.726563-25.71875 39.648438-64.351563 98.730469-50.835938zm-140.945312-21.273437c1.609374-1.726563 3.871093-2.707031 6.230468-2.695313h14.730469c2.363281-.003906 4.625.972656 6.242187 2.695313 1.617188 1.722656 2.445313 4.042969 2.289063 6.402343l-7.132813 107.425782c-3.363281 3.722656-6.300781 7.804687-8.765624 12.175781-2.453126-4.367187-5.382813-8.453125-8.738282-12.175781l-7.132812-107.425782c-.167969-2.359374.660156-4.679687 2.277344-6.402343zm-113.757813 21.273437c59.113281-13.515625 87.042969 25.117188 98.730469 50.835938l1.8125 27.304687c-9.910156-5.414062-21.019532-8.25-32.308594-8.242187h-15.480469c-16.773437-.734375-32.40625-8.6875-42.878906-21.8125-8.875-14.355469-12.371094-31.394532-9.875-48.085938zm-85.980469 206.429688c.070313-65.949219 53.515625-119.394532 119.46875-119.464844h34.695313c27.925781.003906 50.578125 22.617188 50.636719 50.542969v14.769531c0 4.714844 3.820312 8.535156 8.53125 8.535156 4.714843 0 8.535156-3.820312 8.535156-8.535156v-14.769531c.054687-27.925781 22.710937-50.539063 50.636718-50.542969h34.695313c65.953125.070312 119.398437 53.515625 119.46875 119.464844v64c-.183594 101.351562-82.375 183.425781-183.722656 183.46875h-4.011719c-9.425781 0-17.066406-7.640625-17.066406-17.066406 0-4.714844-3.820313-8.535157-8.535156-8.535157-4.710938 0-8.53125 3.820313-8.53125 8.535157 0 9.425781-7.640626 17.066406-17.066407 17.066406h-4.011719c-101.347656-.042969-183.539062-82.117188-183.722656-183.46875zm0 0"/><path d="m213.152344 424.550781c9.304687 9.179688 24.257812 9.179688 33.5625 0l88.96875-88.253906c14.546875-14.414063 22.726562-34.046875 22.714844-54.527344-.007813-20.476562-8.199219-40.105469-22.757813-54.511719-28.9375-28.5-74.886719-30.066406-105.703125-3.609374-30.582031-26.257813-76.128906-24.9375-105.136719 3.054687-14.421875 14.132813-22.503906 33.503906-22.402343 53.695313-.113282 21.683593 8.445312 42.511718 23.765624 57.855468zm-76.464844-185.617187c23.828125-22.957032 61.613281-22.738282 85.179688.484375l2.074218 2.058593c3.324219 3.296876 8.6875 3.296876 12.015625 0l2.0625-2.046874c23.753907-23.40625 61.898438-23.40625 85.648438 0 11.304687 11.203124 17.664062 26.460937 17.664062 42.378906 0 15.917968-6.359375 31.175781-17.664062 42.382812l-89 88.242188c-2.652344 2.578125-6.875 2.578125-9.523438 0l-86.964843-86.296875c-12.074219-12.113281-18.8125-28.542969-18.714844-45.644531-.117188-15.613282 6.097656-30.605469 17.222656-41.558594zm0 0"/><path d="m230.398438 375.464844c4.714843 0 8.535156-3.820313 8.535156-8.53125v-93.867188c0-4.710937-3.820313-8.53125-8.535156-8.53125-4.710938 0-8.53125 3.820313-8.53125 8.53125v93.867188c0 4.710937 3.820312 8.53125 8.53125 8.53125zm0 0"/><path d="m183.917969 323.414062c2.027343 1.011719 4.371093 1.179688 6.519531.460938s3.921875-2.257812 4.933594-4.285156l8.53125-17.066406c2.109375-4.21875.398437-9.34375-3.820313-11.453126-4.21875-2.105468-9.347656-.394531-11.453125 3.824219l-8.53125 17.066407c-1.015625 2.027343-1.179687 4.371093-.464844 6.519531.71875 2.148437 2.261719 3.921875 4.285157 4.933593zm0 0"/><path d="m265.386719 319.546875c2.105469 4.21875 7.234375 5.929687 11.453125 3.824219 4.214844-2.105469 5.929687-7.234375 3.820312-11.453125l-8.53125-17.066407c-2.109375-4.21875-7.234375-5.929687-11.453125-3.820312-4.21875 2.105469-5.929687 7.230469-3.824219 11.449219zm0 0"/></svg>