<svg id="Capa_1" fill='#FFFF' enable-background="new 0 0 511.868 511.868" height="512" viewBox="0 0 511.868 511.868" width="512" xmlns="http://www.w3.org/2000/svg"><g><path d="m242.511 127.148c3.678 7.356 12.675 10.433 20.125 6.708 5.969-3.003 4.975-3.243 29.296-51.885 3.705-7.41.702-16.42-6.708-20.125-7.409-3.705-16.419-.701-20.124 6.708l-9.172 18.344-9.172-18.344c-3.705-7.41-12.715-10.414-20.125-6.708-7.41 3.705-10.413 12.715-6.708 20.125z"/><path d="m496.868.029h-368.94c-8.284 0-15 6.716-15 15v114.057c-7.173 8.464-10.838 18.769-12.555 28.634-12.999-7.638-28.558-11.516-46.534-11.516-8.284 0-15 6.716-15 15s6.716 15 15 15c41.615 0 57.866 28.313 59.591 69.74-11.772-6.057-23.477-11.952-36.848-7.84-109.63 33.776-89.14 165.477-16.263 222.154-.73 42.768 47.702 65.749 79.937 42.076 222.053-150.887 208.299-140.888 216.36-148.545h140.253c8.284 0 15-6.716 15-15v-323.76c-.001-8.284-6.717-15-15.001-15zm-367.743 176.264c-.237-9.527 1.018-22.248 7.624-28.854 6.561-6.56 19.164-7.882 28.837-7.641.237 9.527-1.018 22.248-7.624 28.854-6.561 6.56-19.158 7.882-28.837 7.641zm-99.137 161.816c0-44.845 30.141-63.545 55.416-71.332 5.416-1.328 23.612 14.741 42.924 14.741 20.276 0 35.934-16.627 41.741-14.86 3.345 1.018 6.567 2.169 9.658 3.443-33.526 49.338-79.345 116.768-108.66 159.908-24.741-23.14-41.079-58.736-41.079-91.9zm92.621 139.962c-7.84 5.847-19.136 4.871-26.277-2.271h-.001c-7.141-7.142-8.117-18.438-2.27-26.278.316-.424 4.971-7.289 50.679-74.556l15.361 15.361c2.929 2.929 6.768 4.394 10.606 4.394 13.244 0 20.082-16.13 10.606-25.606l-19.409-19.409 71.529-105.266c12.1-17.806 32.207-28.493 54.253-28.493 39.866 0 71.978 34.881 68.195 74.874-1.844 19.504-12.119 36.955-28.191 47.876l-3.825 2.599-35.664-35.664c-5.857-5.858-15.355-5.858-21.213 0s-5.858 15.355 0 21.213l31.616 31.616c-2.159 1.469-175.572 119.295-175.995 119.61zm359.259-154.282h-104.032c12.205-27.301 11.136-59.514-3.89-86.665l64.607-8.335c8.217-1.06 14.018-8.58 12.958-16.796-1.061-8.215-8.583-14.021-16.796-12.958l-46.389 5.985 36.705-36.705c5.858-5.857 5.858-15.355 0-21.213-5.856-5.858-15.354-5.858-21.213 0l-36.705 36.705 5.985-46.39c1.06-8.216-4.741-15.736-12.958-16.796-8.218-1.063-15.735 4.742-16.796 12.958l-8.335 64.607c-43.303-23.964-98.255-12.005-126.387 29.394l-11.764 17.313c-24.653-11.595-33.878-10.59-53.341.345-.415-11.438-2.053-25.286-6.452-39.011 13.682-.744 30.231-4.481 42.111-16.362 22.63-22.63 15.712-62.193 14.849-66.629-1.167-6-5.858-10.691-11.858-11.858-2.903-.565-20.842-3.719-39.237.504v-81.853h338.94v293.76z"/><path d="m338.751 90.263h90.354c8.284 0 15-6.716 15-15s-6.716-15-15-15h-90.354c-8.284 0-15 6.716-15 15s6.716 15 15 15z"/></g></svg>