<svg fill='#FFFF' height="512pt" viewBox="0 0 512 512" width="512pt" xmlns="http://www.w3.org/2000/svg"><path d="m144.820312 175.703125c.667969 2.421875 2.792969 3.632813 6.382813 3.632813 2.921875 0 5.738281-.792969 8.449219-2.378907 2.710937-1.585937 4.070312-3.464843 4.070312-5.636719 0-.25-.085937-.707031-.25-1.375l-23.410156-76.355468c-.667969-2.085938-2.191406-3.695313-4.570312-4.820313-2.375-1.125-5.109376-1.691406-8.195313-1.691406-3.089844 0-5.824219.566406-8.199219 1.691406-2.378906 1.125-3.902344 2.734375-4.570312 4.820313l-23.285156 76.355468c-.167969.667969-.25 1.125-.25 1.375 0 2.171876 1.355468 4.050782 4.070312 5.636719 2.710938 1.585938 5.527344 2.378907 8.449219 2.378907 3.585937 0 5.714843-1.210938 6.382812-3.632813l4.257813-15.644531h26.410156zm-26.664062-30.667969 9.140625-33.546875 9.136719 33.546875zm0 0"/><path d="m357.632812 176.582031c1.542969 1.167969 3.609376 1.753907 6.195313 1.753907h27.789063c7.679687 0 13.789062-2.148438 18.339843-6.449219 4.546875-4.296875 6.820313-11.117188 6.820313-20.464844v-2.628906c0-5.839844-1.085938-10.242188-3.253906-13.207031-2.171876-2.960938-5.382813-5.234376-9.636719-6.820313 7.089843-3.085937 10.636719-9.640625 10.636719-19.652344 0-14.855469-8.34375-22.28125-25.035157-22.28125h-25.660156c-2.335937 0-4.339844.519531-6.007813 1.5625-1.667968 1.046875-2.503906 2.527344-2.503906 4.445313v79.609375c0 1.585937.773438 2.964843 2.316406 4.132812zm17.085938-72.726562h13.144531c2.253907 0 4.007813.875 5.257813 2.628906 1.25 1.75 1.878906 3.796875 1.878906 6.132813 0 2.335937-.628906 4.359374-1.878906 6.070312s-3.003906 2.566406-5.257813 2.566406h-13.144531zm0 32.417969h12.519531c6.675781 0 10.015625 3.839843 10.015625 11.515624v2.003907c0 7.679687-3.339844 11.519531-10.015625 11.519531h-12.519531zm0 0"/><path d="m356.886719 329.394531c-1.667969 1.046875-2.503907 2.527344-2.503907 4.445313v79.484375c0 1.921875.832032 3.402343 2.503907 4.445312 1.667969 1.042969 3.671875 1.5625 6.007812 1.5625h44.5625c1.921875 0 3.382813-.832031 4.382813-2.503906 1-1.667969 1.5-3.628906 1.5-5.882813 0-2.417968-.519532-4.460937-1.5625-6.132812-1.042969-1.667969-2.484375-2.503906-4.320313-2.503906h-33.546875v-21.28125h18.777344c1.917969 0 3.378906-.75 4.378906-2.25 1.003906-1.503906 1.503906-3.214844 1.503906-5.132813 0-2.085937-.523437-3.882812-1.566406-5.382812-1.042968-1.503907-2.484375-2.253907-4.316406-2.253907h-18.777344v-21.15625h33.546875c1.835938 0 3.273438-.832031 4.320313-2.503906 1.042968-1.667968 1.5625-3.710937 1.5625-6.132812 0-2.253906-.5-4.210938-1.5-5.882813-1-1.667969-2.460938-2.503906-4.382813-2.503906h-44.5625c-2.335937 0-4.339843.523437-6.007812 1.566406zm0 0"/><path d="m130.734375 344.855469c7.175781 0 10.890625 3.753906 11.140625 11.265625.25 3.921875 3.507812 5.882812 9.765625 5.882812 3.503906 0 6.007813-.644531 7.511719-1.941406 1.5-1.292969 2.25-3.734375 2.25-7.320312 0-7.761719-2.9375-13.851563-8.824219-18.277344-5.882813-4.421875-13.414063-6.632813-22.59375-6.632813-8.929687 0-16.167969 2.378907-21.71875 7.136719-5.550781 4.753906-8.324219 12.222656-8.324219 22.402344v33.175781c0 10.179687 2.773438 17.648437 8.324219 22.402344 5.550781 4.757812 12.789063 7.136719 21.71875 7.136719 9.179687 0 16.710937-2.335938 22.59375-7.011719 5.882813-4.671875 8.824219-11.054688 8.824219-19.148438 0-3.589843-.75-6.027343-2.25-7.324219-1.503906-1.292968-4.050782-1.941406-7.636719-1.941406-6.09375 0-9.304687 1.964844-9.640625 5.886719-.167969 1.75-.355469 3.128906-.5625 4.128906-.207031 1.003907-.648438 2.273438-1.3125 3.816407-.671875 1.546874-1.773438 2.691406-3.316406 3.445312-1.546875.75-3.488282 1.125-5.824219 1.125-7.59375 0-11.390625-4.171875-11.390625-12.515625v-33.175781c0-8.34375 3.757812-12.515625 11.265625-12.515625zm0 0"/><path d="m502 0h-492c-5.523438 0-10 4.476562-10 10v492c0 5.523438 4.476562 10 10 10h492c5.523438 0 10-4.476562 10-10v-492c0-5.523438-4.476562-10-10-10zm-10 246h-70c-5.523438 0-10 4.476562-10 10s4.476562 10 10 10h70v226h-226v-70c0-5.523438-4.476562-10-10-10s-10 4.476562-10 10v70h-226v-226h70c5.523438 0 10-4.476562 10-10s-4.476562-10-10-10h-70v-226h226v70c0 5.523438 4.476562 10 10 10s10-4.476562 10-10v-70h226zm0 0"/><path d="m256 286c-5.511719 0-10 4.488281-10 10v40c0 5.511719 4.488281 10 10 10s10-4.488281 10-10v-40c0-5.511719-4.488281-10-10-10zm0 0"/><path d="m256 246c-5.511719 0-10 4.488281-10 10s4.488281 10 10 10 10-4.488281 10-10-4.488281-10-10-10zm0 0"/><path d="m256 166c-5.511719 0-10 4.488281-10 10v40c0 5.511719 4.488281 10 10 10s10-4.488281 10-10v-40c0-5.511719-4.488281-10-10-10zm0 0"/><path d="m216 246h-40c-5.523438 0-10 4.476562-10 10s4.476562 10 10 10h40c5.523438 0 10-4.476562 10-10s-4.476562-10-10-10zm0 0"/><path d="m296 266h40c5.523438 0 10-4.476562 10-10s-4.476562-10-10-10h-40c-5.523438 0-10 4.476562-10 10s4.476562 10 10 10zm0 0"/><path d="m220 136c0-49.625-40.375-90-90-90s-90 40.375-90 90 40.375 90 90 90 90-40.375 90-90zm-160 0c0-38.597656 31.402344-70 70-70s70 31.402344 70 70-31.402344 70-70 70-70-31.402344-70-70zm0 0"/><path d="m382 226c49.625 0 90-40.375 90-90s-40.375-90-90-90-90 40.375-90 90 40.375 90 90 90zm0-160c38.597656 0 70 31.402344 70 70s-31.402344 70-70 70-70-31.402344-70-70 31.402344-70 70-70zm0 0"/><path d="m130 286c-49.625 0-90 40.375-90 90s40.375 90 90 90 90-40.375 90-90-40.375-90-90-90zm0 160c-38.597656 0-70-31.402344-70-70s31.402344-70 70-70 70 31.402344 70 70-31.402344 70-70 70zm0 0"/><path d="m292 376c0 49.625 40.375 90 90 90s90-40.375 90-90-40.375-90-90-90-90 40.375-90 90zm160 0c0 38.597656-31.402344 70-70 70s-70-31.402344-70-70 31.402344-70 70-70 70 31.402344 70 70zm0 0"/></svg>