<?xml version="1.0" encoding="UTF-8" standalone="no"?>
<!-- Created with Inkscape (http://www.inkscape.org/) -->

<svg
   xmlns:dc="http://purl.org/dc/elements/1.1/"
   xmlns:cc="http://creativecommons.org/ns#"
   xmlns:rdf="http://www.w3.org/1999/02/22-rdf-syntax-ns#"
   xmlns:svg="http://www.w3.org/2000/svg"
   xmlns="http://www.w3.org/2000/svg"
   xmlns:sodipodi="http://sodipodi.sourceforge.net/DTD/sodipodi-0.dtd"
   xmlns:inkscape="http://www.inkscape.org/namespaces/inkscape"
   width="259.9057mm"
   height="74.983612mm"
   viewBox="0 0 259.9057 74.983612"
   version="1.1"
   id="svg1662"
   inkscape:version="0.92.4 (5da689c313, 2019-01-14)"
   sodipodi:docname="logo.svg">
  <defs
     id="defs1656" />
  <sodipodi:namedview
     id="base"
     pagecolor="#ffffff"
     bordercolor="#666666"
     borderopacity="1.0"
     inkscape:pageopacity="0.0"
     inkscape:pageshadow="2"
     inkscape:zoom="0.98994949"
     inkscape:cx="582.01135"
     inkscape:cy="-38.411812"
     inkscape:document-units="mm"
     inkscape:current-layer="g1277"
     showgrid="false"
     fit-margin-top="0"
     fit-margin-left="0"
     fit-margin-right="0"
     fit-margin-bottom="0"
     inkscape:pagecheckerboard="true"
     inkscape:window-width="1920"
     inkscape:window-height="1001"
     inkscape:window-x="-9"
     inkscape:window-y="-9"
     inkscape:window-maximized="1" />
  <metadata
     id="metadata1659">
    <rdf:RDF>
      <cc:Work
         rdf:about="">
        <dc:format>image/svg+xml</dc:format>
        <dc:type
           rdf:resource="http://purl.org/dc/dcmitype/StillImage" />
        <dc:title></dc:title>
      </cc:Work>
    </rdf:RDF>
  </metadata>
  <g
     inkscape:label="Capa 1"
     inkscape:groupmode="layer"
     id="layer1"
     transform="translate(25.157113,-42.372951)">
    <g
       id="g1277"
       transform="matrix(0.26458333,0,0,0.26458333,-383.82668,67.496286)">
      <path
         id="path1165"
         d="m 2125.5498,182.94566 c -45,0.1 -81.5,-36.3 -81.5,-81.3 -0.1,-42.9 33.2,-78.5 76,-81.3 l 0.3,4 c -42.7,2.9 -74.9,39.9 -72,82.5 2.9,42.7 39.9,74.9 82.5,72 23.3,-1.6 44.6,-13.6 58,-32.6 l 3.3,2.3 c -15.3,21.5 -40.1,34.4 -66.6,34.4 z"
         class="st0"
         inkscape:connector-curvature="0"
         style="fill:#4ead33" />
      <path
         id="path1167"
         d="m 2256.3498,182.94566 c -45,0 -81.4,-36.5 -81.4,-81.5 0,-13.1 3.2,-26 9.2,-37.6 l 3.6,1.9 c -19.8,37.9 -5.1,84.7 32.8,104.5 37.9,19.8 84.7,5.1 104.5,-32.8 19.8,-37.9 5.1,-84.7 -32.8,-104.5 -9.5,-5 -20,-7.9 -30.8,-8.6 l 0.3,-4 c 44.9,2.9 78.9,41.6 76,86.5 -2.9,42.8 -38.4,76.1 -81.4,76.1 z"
         class="st1"
         inkscape:connector-curvature="0"
         style="fill:#fcc301" />
      <path
         id="path1169"
         d="m 1414.5498,-61.85434 h -22 l -35.2,99.1 h 18.5 l 9,-22 h 37.2 l 7.7,21.5 h 19.1 z m -25.3,60.5999995 14.3,-40.6999995 14.5,40.6999995 z"
         class="st2"
         inkscape:connector-curvature="0"
         style="fill:#e51560" />
      <path
         id="path1171"
         d="m 1967.1498,-61.85434 h -22 l -35.2,99.1 h 18.5 l 9,-22 h 37.3 l 7.7,21.6 h 19.1 z m -25.3,60.5999995 14.3,-40.6999995 14.5,40.6999995 z"
         class="st2"
         inkscape:connector-curvature="0"
         style="fill:#e51560" />
      <path
         id="path1173"
         d="m 1514.7498,1.1456595 c 24.9,0 24.2,-30.3999995 24.2,-30.3999995 1.1,-34.8 -30.8,-32.8 -30.8,-32.8 h -45.4 c 0.7,0 -0.2,99.5 -0.2,99.5 h 19.4 V 3.5456595 h 13.7 l 25.8,33.2000005 h 19.4 z m -32.4,-13.1999995 -0.2,-33 h 22.9 c 0,0 16.1,0.2 15.4,15.6 0,0 0.2,17.4 -14.8,17.4 z"
         class="st2"
         inkscape:connector-curvature="0"
         style="fill:#e51560" />
      <polygon
         id="polygon1175"
         points="1539.7,80.2 1569.4,32.7 1586.8,32.7 1586.8,132 1568.3,132 1568.3,66.4 1540.1,108.4 1511.7,65.9 1511.7,131.8 1492.1,131.8 1492.6,32.7 1510.6,32.7 "
         class="st2"
         style="fill:#e51560"
         transform="translate(64.649764,-94.95434)" />
      <path
         id="path1177"
         d="m 1756.7498,-24.15434 c 0,-41.8 -42.9,-39.6 -42.9,-39.6 -43.8,0 -43.4,44 -43.4,44 l 0.4,19.59999954 c 0,41.80000046 46,38.50000046 46,38.50000046 39.9,0 40.1,-41.2000005 40.1,-41.2000005 z m -42.5,46.7 c 0,0 -25.1,2 -25.1,-26.6000005 V -19.35434 c 0,0 0.2,-28 24.4,-28 0,0 25.1,-2.6 24.2,28.4 v 12.7999995 c 0,0 2.4,28.2000005 -23.5,28.7000005 z"
         class="st2"
         inkscape:connector-curvature="0"
         style="fill:#e51560" />
      <polygon
         id="polygon1179"
         points="1771.8,32.2 1789.8,32.2 1789.8,132.2 1772,132.2 1729.3,65.3 1729.3,132 1710.8,132.2 1710.8,32.9 1729.3,32.9 1771.8,99.8 "
         class="st2"
         style="fill:#e51560"
         transform="translate(64.649764,-94.95434)" />
      <polygon
         id="polygon1181"
         points="1844.2,7.6 1827.5,24.8 1815.6,24.5 1823.9,7.6 "
         class="st2"
         style="fill:#e51560"
         transform="translate(64.649764,-94.95434)" />
      <rect
         id="rect1183"
         height="100.2"
         width="20"
         class="st2"
         y="-62.454342"
         x="1876.4498"
         style="fill:#e51560" />
      <polygon
         id="polygon1185"
         points="1343.9,146.8 1343.9,217.1 1337.4,217.1 1299,157 1299,216.8 1293.1,216.8 1293.2,147.3 1300.4,147.3 1338.4,207 1338.4,146.8 "
         class="st2"
         style="fill:#e51560"
         transform="translate(64.649764,-94.95434)" />
      <polygon
         id="polygon1187"
         points="1500.3,152.5 1519.9,152.5 1519.9,146.9 1473.6,146.9 1473.6,152.5 1493.6,152.5 1493.6,216.7 1500.3,216.7 "
         class="st2"
         style="fill:#e51560"
         transform="translate(64.649764,-94.95434)" />
      <polygon
         id="polygon1189"
         points="1715.8,152.5 1735.4,152.5 1735.4,146.9 1689.2,146.9 1689.2,152.5 1709.1,152.5 1709.1,216.7 1715.8,216.7 "
         class="st2"
         style="fill:#e51560"
         transform="translate(64.649764,-94.95434)" />
      <rect
         id="rect1191"
         height="69.400002"
         width="6.3000002"
         class="st2"
         y="52.245655"
         x="1709.8497"
         style="fill:#e51560" />
      <rect
         id="rect1193"
         height="69.400002"
         width="6.3000002"
         class="st2"
         y="52.245655"
         x="1837.8497"
         style="fill:#e51560" />
      <polygon
         id="polygon1195"
         points="1817.6,147 1824.1,147 1845.3,208.6 1868.3,147.2 1874.6,147.2 1849.5,216.4 1842.4,216.4 "
         class="st2"
         style="fill:#e51560"
         transform="translate(64.649764,-94.95434)" />
      <path
         id="path1197"
         d="m 2010.3498,121.74566 h 6.6 l -25.6,-69.4 h -7.3 l -25.9,69.2 h 6.5 l 7.6,-19.8 h 30.9 z m -36.3,-24.4 14.3,-37.2 13.3,37.2 z"
         class="st2"
         inkscape:connector-curvature="0"
         style="fill:#e51560" />
      <path
         id="path1199"
         d="m 1647.9498,95.04566 c 0.3,0.3 2.8,-0.1 3.2,-0.2 5,-0.5 9.9,-2.3 13.4,-6.1 2.4,-2.8 4,-6.2 4.5,-9.8 0.7,-4 0.7,-8 0,-12 -1.4,-6.5 -6.9,-11.9 -13.2,-13.5 -4.9,-1.3 -11.4,-1.3 -16.5,-1.3 -5.8,0 -11.7,0.1 -17.5,0.1 l -0.1,68.9 h 6.1 v -26.1 h 14 l 22,26.3 h 6.3 z m -20.3,-4.4 0.2,-32.3 h 19.3 c 0,0 16.7,-0.7 16.7,15.5 0,0 1.4,16.9 -18.2,16.9 h -18 z"
         class="st2"
         inkscape:connector-curvature="0"
         style="fill:#e51560" />
      <path
         id="path1201"
         d="m 1451.0498,52.14566 h 6.3 v 48.9 c 0,0 -0.6,15.9 18.6,15.9 0,0 19.5,1.9 19.5,-15.4 v -49.2 h 6.3 v 48.7 c 0,0 1.9,21.6 -24.7,21.6 0,0 -25.8,1.2 -25.8,-20.4 0,0 -0.5,-50.1 -0.2,-50.1 z"
         class="st2"
         inkscape:connector-curvature="0"
         style="fill:#e51560" />
      <path
         id="path1203"
         d="m 1426.0498,143.44566 c -4.8,5.3 -11.6,10.2 -19,10.6 -2.8,0.1 -6,-0.5 -7.4,-3 -0.1,-0.1 -0.2,-0.3 -0.2,-0.5 v 0 c 0,0 0,0 0,0 -0.1,-0.4 -0.2,-0.8 -0.3,-1.2 -0.1,-0.5 -0.2,-1.1 -0.1,-1.6 1.9,-0.4 3.7,-1 5.4,-1.8 2.4,-1.1 5.6,-2.9 6.5,-5.5 0.7,-2.1 -0.8,-3.6 -2.8,-3.6 -1.9,0 -3.8,0.6 -5.4,1.7 -3.1,1.8 -5.5,4.7 -6.1,8.1 v 0 c -1.1,1.7 -2.1,3.6 -3.1,5.4 -1.4,2.7 -2.7,6.6 -6.4,6.7 -1.1,0 -1.4,-0.5 -1.3,-1.8 0.2,-1.6 0.8,-2.3 1.1,-3.7 0.7,-3.8 0.1,-8.2 -2.5,-11.2 -1.7,-2 -4.4,-2.7 -6.9,-1.9 -1.8,0.6 -3.3,1.7 -4.5,3.1 -0.6,-1.1 -1.4,-2.1 -2.4,-2.9 -2,-1.5 -4.4,-0.9 -6.3,0.6 -1.3,1 -2.4,2.2 -3.3,3.5 l 2.3,-8.6 c 0.2,-0.7 -0.3,-1.3 -0.9,-1.5 -0.6,-0.2 -1.3,0.2 -1.5,0.8 l -5.3,19.5 c -0.4,1.6 1.8,2.1 2.4,0.7 l 0.1,-0.2 c 0.2,-0.4 0.3,-0.7 0.5,-1 0.5,-1.2 1.1,-2.4 1.7,-3.6 1.4,-2.6 3,-5.5 5.3,-7.4 0.7,-0.7 1.6,-1 2.5,-1.1 1.2,0.2 2,1.5 2.6,2.5 0.2,0.3 0.3,0.7 0.5,1 0,0 0,0.1 -0.1,0.1 -1.6,2.4 -2.6,5 -3.1,7.8 -0.2,1.5 0.2,3.2 1.8,3.7 1,0.4 2.2,0.1 2.9,-0.8 2.6,-2.3 2.2,-6.4 1.5,-9.5 -0.1,-0.4 -0.2,-0.7 -0.3,-1.1 0.9,-1.3 2.2,-2.4 3.6,-3.1 0.1,0 0.1,0 0.1,0 0.1,0 0.1,0 0.2,-0.1 0.2,0 0.4,-0.1 0.6,-0.2 0.6,-0.2 1.1,-0.2 1.7,-0.1 1.5,0.4 2.7,1.4 3.3,2.8 1,2 1.4,4.2 1.1,6.4 -0.1,1.8 -1,3.3 -1.2,5.1 -0.2,1.8 0.4,4 2.4,4.5 2.3,0.4 4.7,-0.3 6.4,-2 1.5,-1.3 2.1,-3 3,-4.7 0.6,-1.2 1.2,-2.4 1.9,-3.5 0,0.1 0.1,0.3 0.2,0.5 1.9,5.1 8.1,5.7 12.8,4.9 7,-1.2 13.4,-5.8 18,-11 0.9,-1.2 -0.9,-2.9 -2,-1.8 z m -54.3,10 c -0.1,0.3 -0.3,0.6 -0.5,0.9 -0.1,0.1 -0.4,0.4 -0.5,0.5 0,0 0.1,0 0,0 h -0.1 c -0.2,0 -0.2,-0.1 -0.2,-0.1 -0.5,-0.9 0.2,-2.6 0.6,-3.5 0.3,-0.9 0.6,-1.7 1,-2.5 0.3,1.5 0.2,3.2 -0.3,4.7 z m 36.8,-14 z m 0,-0.2 c 0,0.1 0,0.1 0,0 0,0.1 -0.1,0.1 0,0 z m -2.8,0.5 v 0 c 0.3,-0.1 0.6,-0.2 0.8,-0.2 0.5,-0.1 1,-0.2 1.5,-0.2 h 0.5 c 0,0.1 0,0.2 0,0.2 l -0.1,0.2 -0.1,0.2 c -2.1,2.8 -5.4,4.2 -8.8,5.1 0.1,-0.2 0.2,-0.4 0.3,-0.6 1.5,-2.1 3.5,-3.7 5.9,-4.7 z"
         class="st3"
         inkscape:connector-curvature="0"
         style="fill:#5b5a59" />
      <path
         id="path1205"
         d="m 1370.6498,154.74566 v 0 c 0,0 -0.1,0 0,0 z"
         class="st3"
         inkscape:connector-curvature="0"
         style="fill:#5b5a59" />
      <path
         id="path1207"
         d="m 1587.6498,144.24566 c -4.3,4.2 -9.8,6.8 -15.8,7.6 -0.9,0.1 -1.8,0.2 -2.7,0.2 0.5,-1.4 0.7,-2.9 0.5,-4.4 -0.3,-2.4 -1.4,-4.3 -4,-4.5 -3.2,-0.3 -6.2,2 -8.4,4 -0.8,0.7 -1.4,1.5 -2.2,2.3 -0.5,0.4 -1,0.7 -1.5,1 -1.2,0.7 -2.5,1.4 -3.9,2 -3.1,1.5 -6.6,1.9 -10,1.4 -0.9,-0.2 -1.9,-0.5 -2.7,-1 -0.3,-0.2 -0.6,-0.3 -0.9,-0.5 l -0.3,-0.2 v 0 c -0.6,-0.8 -1.2,-1.7 -1.6,-2.6 0.3,-0.6 0.6,-1.2 0.9,-1.8 1.2,-2.3 2.2,-4.7 3,-7.2 1.5,-4.2 2.6,-8.5 3.4,-12.9 0.5,-2.4 0.9,-4.9 1,-7.4 0,-1 -0.2,-2 -0.6,-2.9 -1.3,-2.4 -4.2,-1.6 -5.6,0.3 -1.3,1.8 -2.4,3.7 -3.4,5.7 -2.6,5.2 -3.9,10.9 -3.8,16.7 -6,-0.6 -12.9,0.6 -15.9,6.5 -0.2,0.4 -0.4,0.8 -0.5,1.3 -2.7,2.8 -5.6,5.2 -8.8,7.4 -0.8,0.5 -1.7,1 -2.6,1.4 -0.3,0.1 -0.6,0.2 -0.9,0.3 l -0.4,0.1 h -0.1 -0.4 v 0 h -0.1 v 0 c 0,0 0.1,0.1 0.1,0.1 -0.5,-0.1 -1,-0.2 -1.5,-0.4 -1.9,-0.9 -0.8,-3.8 -0.2,-5.3 0.7,-1.7 1.7,-3.3 2.8,-4.8 0.8,-1.2 -1,-2.5 -2,-1.5 -3.1,3.5 -6.7,6.6 -10.5,9.3 -1.8,1.4 -3.9,2.4 -6.1,3 -0.5,0.1 -0.9,0.2 -1.4,0.2 h -0.4 v 0 c -0.6,-0.5 -1,-1.3 -1.1,-2.1 0,-1.3 0.4,-2.6 1.1,-3.8 0.5,-0.8 1,-1.6 1.5,-2.4 0.9,-1 1.8,-2 2.6,-3 1,-1.2 -0.6,-2.9 -1.8,-1.8 -1.1,1.1 -2.2,2.3 -3.1,3.6 -1.9,2.1 -4,4 -6.2,5.6 -1.7,1.3 -3.6,2.2 -5.6,2.7 -0.2,0.1 -0.4,0.1 -0.6,0.1 h -0.7 -0.1 l -0.2,-0.1 c -2,-0.7 -1.4,-3.4 -0.9,-5 0.6,-2.1 1.5,-4 2.6,-5.9 0.3,-0.6 0,-1.4 -0.6,-1.7 -0.6,-0.3 -1.2,-0.1 -1.6,0.4 -0.2,0.3 -0.3,0.5 -0.5,0.9 -2.2,3.9 -5.5,7.1 -9.3,9.4 -3.1,1.7 -6.6,2.1 -10,1.3 -2.4,-0.4 -4.6,-1.6 -6.2,-3.3 0,0 -0.3,-0.6 -0.4,-0.6 -0.3,-0.5 -0.4,-1.1 -0.5,-1.6 -0.2,-1.1 0,-2.3 0.4,-3.3 0.7,-1.5 1.7,-2.9 3,-4 l 0.4,-0.3 c 0.3,-0.2 0.7,-0.5 1,-0.7 1.1,-0.8 2.4,-1.1 3.7,-1 0.8,0.2 1.5,0.5 2,1.1 0.2,0.2 0.4,0.4 0.6,0.7 0.9,1.4 3,0.1 2.2,-1.3 -0.7,-1.1 -1.7,-1.9 -2.9,-2.5 -2.6,-1.2 -5.4,-0.3 -7.6,1.2 -3.2,2.3 -5.9,6.1 -5.3,10.2 0.5,3.4 2.8,5.5 5.8,6.8 2.4,1 5.1,1.5 7.8,1.4 2,0 4,-0.4 5.9,-1.2 2.4,-1.2 4.6,-2.7 6.5,-4.6 -0.3,2.3 0.1,4.4 2.1,5.5 2.8,1.6 6.3,0 8.8,-1.5 1.3,-0.8 2.5,-1.6 3.6,-2.6 -0.3,1.7 0.3,3.5 1.6,4.7 2.6,2.5 7,0 9.5,-1.4 2.6,-1.5 5,-3.3 7.2,-5.3 -0.6,1.9 -0.7,4.1 0.6,5.6 1,1 2.4,1.6 3.8,1.7 1.6,-0.1 3.1,-0.5 4.4,-1.4 3.1,-1.8 5.9,-4 8.5,-6.5 0.3,3.5 2.2,6.6 6,7.4 5,1 10.1,-1.4 13.2,-5.3 0.4,-0.5 0.8,-1 1.1,-1.5 0.3,0.6 0.7,1.2 1.1,1.7 0.3,0.3 0.6,0.6 1,0.8 1.8,1.2 4,1.9 6.1,2 4.1,0.2 8.1,-0.8 11.7,-2.8 0.8,-0.4 1.7,-0.8 2.5,-1.3 0,0.5 0,0.9 0,1.4 0.1,1.2 0.5,2.3 1,3.3 0.4,0.9 1.2,1.5 2.2,1.8 4,1.5 7.7,-1 9.8,-4.5 3.5,0.4 7.3,-0.6 10.5,-1.7 4.1,-1.4 7.8,-3.7 10.9,-6.8 0.5,-0.5 0.5,-1.3 0.1,-1.8 -0.4,-0.5 -1.2,-0.6 -1.7,-0.1 z m -148.2,7.7 z m 40.9,5.3 c 0.1,0 0.1,0.1 0,0 z m 56.8,-36.6 c 0.4,-0.6 0.9,-1.3 1.3,-1.9 v 0 0 c 0.2,-0.2 0.5,-0.4 0.9,-0.5 h 0.2 c 0.4,0.3 0.5,1.5 0.4,1.9 -0.1,2.4 -0.5,4.8 -1,7.2 -1.1,6.6 -3.2,13.1 -6.1,19.1 -0.5,-1.4 -0.8,-2.9 -1.1,-4.4 0.1,-0.1 0.1,-0.2 0.2,-0.3 0.1,-0.4 0,-0.9 -0.3,-1.2 -0.5,-7.1 1.8,-14.1 5.5,-19.9 z m -8,31.8 c -1.9,2.1 -4.4,3.5 -7.2,4 -1.7,0.3 -3.5,0 -5.1,-0.8 -1.9,-1.3 -2.2,-3.7 -2.2,-5.8 0,-0.3 0,-0.6 0.1,-1 0,0 0,0 0,-0.1 0.1,-0.1 0.1,-0.2 0.2,-0.3 0,-0.1 0,-0.1 0.1,-0.2 l 0.1,-0.1 c 0,0 0,0 0,-0.1 v 0 0 l 0.1,-0.1 c 0.1,-0.3 0.3,-0.6 0.5,-0.9 0.2,-0.3 0.2,-0.3 0.3,-0.5 l 0.2,-0.2 0.2,-0.2 c 1.7,-1.9 4.1,-3.2 6.6,-3.6 2.1,-0.4 4.3,-0.4 6.4,-0.1 0.2,1.7 0.7,3.4 1.2,5.1 0.2,0.6 0.5,1.2 0.7,1.8 -0.6,1.1 -1.4,2.2 -2.2,3.1 z m 6.6,-0.3 c 0.2,0.2 0.1,0 0,0 z m 29.8,-6.5 c 0.3,0 0.6,0.2 0.9,0.3 v 0 c 1.2,1.7 0.9,3.8 0.1,5.7 -1.6,-0.4 -2.9,-1.5 -3.6,-3 -0.3,-0.7 -0.5,-1.5 -0.5,-2.3 0.4,-0.2 0.8,-0.4 1.2,-0.5 0.6,-0.2 1.2,-0.3 1.9,-0.2 z m -0.3,8.4 c -0.5,0.8 -1.1,1.5 -1.8,2 -1.6,1.1 -3.1,1 -4.8,0.3 0.2,0.1 0.2,0.4 -0.1,-0.1 -0.2,-0.3 -0.3,-0.7 -0.5,-1 -0.4,-1.2 -0.5,-2.4 -0.2,-3.6 0.4,-1.3 1.3,-2.5 2.4,-3.3 0.6,2.5 2.5,4.6 4.9,5.5 l 0.3,0.1 z"
         class="st3"
         inkscape:connector-curvature="0"
         style="fill:#5b5a59" />
      <path
         id="path1209"
         d="m 1499.4498,156.74566 v 0 c -0.1,0 -0.1,0 0,0 z"
         class="st3"
         inkscape:connector-curvature="0"
         style="fill:#5b5a59" />
      <path
         id="path1211"
         d="m 1515.1498,148.04566 c 0,0 0,0 0,0 0,0 0,0 0,0 z"
         class="st3"
         inkscape:connector-curvature="0"
         style="fill:#5b5a59" />
      <circle
         id="circle1213"
         r="1.7"
         cy="135.84566"
         cx="1504.8497"
         class="st3"
         style="fill:#5b5a59" />
      <circle
         id="circle1215"
         r="1.7"
         cy="135.94565"
         cx="1930.4498"
         class="st3"
         style="fill:#5b5a59" />
      <path
         id="path1217"
         d="m 1601.3498,147.24566 c 0,0.1 0,0.2 -0.1,0.2 0.1,-0.1 0.2,-0.2 0.1,-0.2 z"
         class="st3"
         inkscape:connector-curvature="0"
         style="fill:#5b5a59" />
      <path
         id="path1219"
         d="M 1607.2498,155.34566 Z"
         class="st3"
         inkscape:connector-curvature="0"
         style="fill:#5b5a59" />
      <path
         id="path1221"
         d="m 1771.3498,143.94566 c -5.4,6.3 -13.3,10.9 -21.8,9.3 -2,-0.4 -4,-1.1 -4.9,-3.1 -0.4,-0.9 -0.5,-1.9 -0.3,-2.9 2,0 4,-0.4 5.9,-1.2 2,-0.9 4.5,-2.6 5.4,-4.6 0.5,-1.2 0.9,-3.8 -0.4,-4.6 -0.5,-0.3 -1.1,-0.4 -1.7,-0.4 -3,-0.2 -5.7,1.4 -7.8,3.4 -1.5,1.5 -2.7,3.3 -3.4,5.2 -0.3,0.2 -0.6,0.5 -0.8,0.8 -0.7,0.8 -1.4,1.6 -2.2,2.3 -2,2.1 -4.2,4.1 -6.5,5.8 -1.4,1.1 -3,2 -4.6,2.7 -0.4,0.2 -0.8,0.3 -1.3,0.4 l -0.6,0.2 h -0.3 -0.1 c -0.2,0 -0.5,0 -0.7,0 v 0 c 0,0 -0.1,0 -0.1,0 -0.2,-0.3 -0.4,-0.5 -0.6,-0.8 -0.3,-0.6 -0.3,-1.3 -0.2,-2 0.5,-2 1.4,-3.9 2.7,-5.4 0.9,-1 1.8,-2 2.6,-3 1,-1.2 -0.6,-2.9 -1.8,-1.8 -0.9,0.9 -1.8,1.9 -2.7,3 -2,2.2 -4.2,4.2 -6.6,5.9 -1.7,1.3 -3.7,2.2 -5.8,2.6 -0.3,0 -0.7,0 -1,0 h -0.4 c -0.1,0 -0.2,0 -0.3,0 -0.2,0 -0.4,-0.1 -0.7,-0.2 h -0.2 c 0,0 -0.1,-0.1 -0.1,-0.1 l -0.3,-0.2 c -0.5,-0.6 -0.8,-1.4 -0.7,-2.3 0.2,-1.6 0.8,-3.1 1.7,-4.5 0.4,-0.7 0.9,-1.4 1.4,-2.1 0.7,-0.8 0.1,-2.6 -1.2,-2.1 -4.5,1.9 -9.7,1.5 -13.9,-1.1 -0.2,-0.6 -0.4,-1.1 -0.7,-1.6 -2.5,-4.1 -7.4,-5.7 -11.6,-3.5 -1.7,1 -3.1,2.3 -4.2,4 -0.2,0.2 -0.3,0.4 -0.4,0.6 -0.4,0.6 -0.8,1.3 -1.1,2 -1.5,2.9 -3.3,5.6 -5.3,8.1 -1.7,2.2 -3.7,4.8 -6.3,6 -0.5,0.2 -1,0.4 -1.5,0.5 -0.1,0 -0.6,0 -0.6,0 -1.6,-0.1 -3,-0.9 -4,-2.1 -0.5,-0.8 -0.8,-1.7 -0.9,-2.6 0,-0.3 0,-0.5 0,-0.8 v 0 c 0,-0.4 0.1,-0.9 0.1,-1.3 0.6,-3.6 2.6,-7 4.5,-10.1 0.4,-0.6 0.8,-1.2 1.2,-1.8 0.3,-0.6 0.1,-1.4 -0.5,-1.7 -0.2,-0.1 -0.4,-0.2 -0.6,-0.2 -4.7,0 -9.3,3.5 -12.8,6.3 -3.4,2.7 -7.1,4.8 -11.2,6.3 -2.1,0.7 -4.3,1 -6.5,0.9 1.2,-2.4 1.6,-5.5 -0.4,-7.5 -1.8,-1.9 -4.5,-1.6 -6.6,-0.6 -4.9,-0.9 -10,-0.3 -14.5,1.7 -0.5,-0.7 -1.1,-1.2 -1.8,-1.7 -2.8,-2 -6.4,-1.6 -9.4,-0.2 -0.8,0.4 -1.6,0.8 -2.3,1.4 -0.4,0.4 -0.7,0.9 -0.9,1.5 -0.4,1.1 -0.8,2.1 -1.2,3.2 -1.4,4 -2.6,8 -3.7,12 -1.5,5.3 -3.2,10.8 -3.9,16.2 -0.4,2.8 -1,8.4 2.2,10 1.8,0.9 4.2,-0.9 5.3,-2.2 1.5,-2.1 2.6,-4.5 3.1,-7 0.4,-1.8 0.7,-3 0.9,-4.6 0.4,-3.1 0.6,-6.2 0.6,-9.2 0,-5.5 -0.3,-11 -0.9,-16.5 0,-0.3 -0.1,-0.7 -0.1,-1 v 0 -0.1 0 c 0,-0.1 0,-0.1 0,-0.2 v 0 l 0.1,-0.1 c 0,-0.2 0,-0.1 0,0 0.3,-0.2 0.5,-0.3 0.8,-0.5 2.2,-1.3 5.1,-2.1 7.4,-0.8 0.5,0.3 0.9,0.7 1.3,1.1 -0.7,0.4 -1.4,0.8 -2,1.3 -1.9,1.4 -3.7,3.4 -4.1,5.8 -0.3,1.7 0.1,3.5 1.2,4.8 1.4,1.5 3.9,0.9 5.3,-0.4 2.5,-2.4 3.8,-5.9 3.3,-9.4 -0.1,-0.3 -0.1,-0.6 -0.2,-0.9 l 0.6,-0.2 c 2,-0.8 4.2,-1.3 6.3,-1.5 1.2,-0.1 2.3,-0.1 3.5,0 -1.8,1.6 -3,3.7 -3.5,6.1 -0.4,2.6 0.4,5.9 3.1,6.9 3.7,1.4 7.1,-1.9 9.3,-4.7 4.4,0.6 8.7,-0.8 12.7,-2.8 2.4,-1.1 4.6,-2.5 6.7,-4 1.4,-1.2 2.9,-2.3 4.5,-3.3 1.6,-1.1 3.2,-2 5,-2.7 -2.4,3.7 -4.3,8 -4.6,12.3 -0.3,4.8 4.6,8.9 9.3,7.5 2.7,-0.8 4.7,-2.9 6.5,-5 2.4,-2.6 4.5,-5.4 6.3,-8.5 0.1,0.2 0.3,0.4 0.4,0.6 1.1,1.1 2.5,1.7 4,1.6 2.1,0.1 4.1,-0.5 5.8,-1.7 -2.3,6.4 -4.1,12.9 -5.5,19.6 -0.9,4.3 -1.5,8.6 -1.6,13 0,0.6 0,1.3 0.1,1.9 0.4,2.9 2.6,5 5.6,4 1,-0.3 1.8,-1 2.2,-1.9 1.1,-1.7 2,-3.5 2.7,-5.4 1.2,-3.2 2,-6.5 2.4,-9.8 1,-6.7 1.6,-13.5 1.6,-20.3 0,-1 0,-2.2 -0.1,-3.4 3.3,1.5 7.1,2 10.7,1.3 -0.7,1.2 -1.2,2.5 -1.5,3.8 -0.4,2 -0.2,4.6 1.7,5.9 2.9,2 6.9,0.6 9.7,-0.9 1.3,-0.7 2.5,-1.5 3.6,-2.5 -0.4,1.7 0.1,3.4 1.2,4.7 2.3,2.6 6.5,0.4 8.8,-1.1 3.7,-2.4 7.1,-5.2 10,-8.5 0.1,1.1 0.5,2.2 1.2,3.1 2.1,3.1 6.1,3.8 9.6,3.8 8.2,0.1 15.4,-4.3 20.6,-10.3 1.2,-1.3 -0.6,-3.1 -1.7,-1.9 z m -172.2,30.1 c -0.1,0.5 -0.2,1 -0.3,1.5 0,0.2 -0.1,0.4 -0.1,0.5 0,0.2 0,-0.4 0,-0.1 -0.1,0.6 -0.2,1.3 -0.3,1.9 -0.4,2.1 -1.2,4.2 -2.3,6 -0.5,0.9 -1.3,1.5 -2.3,1.9 -0.1,0 -0.3,0 -0.5,0.1 -0.1,0.1 -0.2,-0.2 -0.2,-0.2 -0.3,-0.4 -0.5,-0.9 -0.6,-1.3 -0.6,-2.4 -0.2,-5.1 0.2,-7.5 0.4,-2 0.9,-3.9 1.4,-5.8 1.5,-6 3.1,-11.9 5,-17.7 0.1,1.4 0.2,2.8 0.2,4.2 0.4,5.4 0.8,11.1 -0.2,16.5 z m 13,-24.5 c 0.2,1.3 0,2.6 -0.5,3.8 -0.4,0.9 -0.8,1.7 -1.4,2.4 -0.2,0.2 -0.4,0.4 -0.5,0.7 0,0 -0.1,0.1 -0.1,0.2 h -0.1 c -0.4,0.2 -1.1,0.7 -1.5,0.5 -0.4,-0.2 -0.7,-1.2 -0.8,-1.8 0,0.1 0,0 0,0 0,0 0,-0.1 0,-0.1 v -0.1 c 0,-0.3 0,-0.5 0,-0.5 0.1,-0.7 0.4,-1.4 0.9,-2 1,-1.4 2.4,-2.6 4,-3.4 0,0.1 0,0.2 0,0.3 z m 19.6,-3.6 0.4,0.2 c 0.1,0 0.2,0.1 0.2,0.1 1.5,1.4 0.8,3.6 -0.1,5.2 -1.6,-0.4 -2.9,-1.7 -3.2,-3.3 -0.1,-0.6 -0.1,-1.2 -0.1,-1.8 0,0 0,-0.1 0,-0.1 0.5,-0.3 1.1,-0.5 1.7,-0.5 0.4,0 0.8,0.1 1.1,0.2 z m -6.1,11.1 c -0.2,0 -0.5,-0.1 -0.7,-0.2 -0.1,0 -0.2,-0.1 -0.3,-0.2 0.1,0 0.1,0.1 0,0 -0.6,-0.9 -0.9,-2 -0.9,-3.1 0.2,-2 1.1,-3.9 2.7,-5.2 l 0.1,-0.1 c 0,0.4 0.1,0.8 0.2,1.1 0.6,2.1 2.3,3.8 4.4,4.5 -1.4,1.6 -3.6,3.6 -5.5,3.2 z m 56.7,-10 c 0,0 0,0 0,0 z m 5.1,0.4 c -0.4,0.2 -0.9,0.2 -1.3,0.4 h -0.2 -0.7 -0.7 -0.4 v 0 h -0.2 c -0.3,-0.1 -0.5,-0.1 -0.8,-0.2 h -0.1 -0.1 l -0.4,-0.2 -0.2,-0.1 -0.1,-0.1 v -0.2 l -0.1,-0.2 v 0 0 c 0,0 -0.1,-0.3 -0.1,-0.5 v 0 0 c 0,-0.1 0,-0.2 0,-0.3 0,-0.1 0,-0.2 0,-0.4 0,-0.2 0,-0.2 0,-0.2 0.1,-0.5 0.2,-0.9 0.4,-1.4 0.5,-0.7 1,-1.4 1.6,-2.1 1,-1.1 2.4,-1.9 3.9,-2.1 0.3,0 0.6,0 0.8,-0.1 v 0 c 0.4,0 0.8,0 1.3,0.1 1.2,0.3 2.2,0.9 3,1.7 l -0.1,0.2 c -0.1,0.1 -0.1,0.2 -0.2,0.3 v 0.1 c -1.2,2.1 -3,4.4 -5.3,5.3 z m 7.4,-2.7 c 1.1,5.1 0.4,11.1 -0.1,16.5 -0.6,6.1 -1.1,12.5 -3.4,18.3 -0.6,1.8 -1.6,3.5 -2.7,5 -0.4,0.3 -1,0.4 -1.5,0.4 -1.1,-0.2 -1.4,-1.6 -1.4,-2.6 0,-3.2 0.2,-6.4 0.8,-9.6 1.3,-7.7 3.3,-15.3 5.9,-22.6 0.7,-1.9 1.4,-3.8 2.1,-5.7 0.1,0.1 0.2,0.2 0.3,0.2 z m 51,-1.5 c 1.4,-2 3.4,-3.4 5.8,-4.1 0.6,-0.2 1.2,-0.2 1.9,-0.2 0.1,1.5 -0.8,2.5 -2.1,3.4 -1,0.7 -2.1,1.4 -3.2,1.8 -1,0.4 -2.1,0.6 -3.2,0.6 0.2,-0.4 0.5,-1 0.8,-1.5 z"
         class="st3"
         inkscape:connector-curvature="0"
         style="fill:#5b5a59" />
      <path
         id="path1223"
         d="m 1849.5498,143.94566 c -3.5,4.8 -8.6,8.2 -14.4,9.4 -3.2,0.7 -7.8,0.9 -10.7,-1.3 -0.5,-0.4 -1,-0.9 -1.3,-1.5 -0.1,-0.2 -0.2,-0.4 -0.2,-0.6 0,-0.2 -0.1,-0.6 -0.1,-0.6 0,-0.3 0,-0.5 0,-0.8 v 0 l 0.1,-0.5 c 0,-0.4 0.1,-0.7 0.2,-1.1 1.1,0.1 2.2,0 3.2,-0.3 1.7,-0.5 3.2,-1.2 4.6,-2.3 1.4,-1 3.3,-2.4 3.8,-4.1 0.5,-1.4 -0.2,-2.8 -1.5,-3.4 -1.2,-0.3 -2.5,-0.2 -3.6,0.3 -1.9,0.7 -3.6,1.7 -5.1,3 -1.3,1.2 -2.4,2.6 -3.1,4.2 -0.2,0.1 -0.3,0.2 -0.4,0.4 -2.2,3.9 -5,8.4 -9.2,10.5 -0.4,0.2 -0.9,0.4 -1.3,0.5 -0.3,0.1 -0.6,0.2 -0.9,0.1 h -0.5 c -0.4,0 -0.9,0 -1.3,-0.1 -2.9,-0.2 -5.4,-2.1 -6.4,-4.9 -0.6,-1.5 -1.8,-3.4 -3.6,-3.5 -1.3,-0.1 -2.7,0.2 -3.8,1 -0.8,0.6 -1.5,1.4 -2.1,2.3 -0.5,-1.9 -1.6,-3.4 -3.8,-3.5 -2.2,0 -4.3,0.8 -6,2.2 0.9,-1.8 1.9,-3.5 2.8,-5.1 0.3,-0.6 0.1,-1.4 -0.5,-1.7 -0.6,-0.3 -1.4,-0.1 -1.7,0.5 -2.8,4.9 -5.6,10.1 -7.1,15.5 -0.2,0.7 0.3,1.3 0.9,1.5 0.6,0.2 1.3,-0.2 1.5,-0.8 l 0.1,-0.3 0.1,-0.3 c 0.1,-0.2 0.2,-0.4 0.2,-0.5 0.4,-0.9 0.9,-1.8 1.5,-2.7 1.4,-2.2 3.4,-4.5 6,-5.4 0.6,-0.2 1.2,-0.3 1.8,-0.3 v 0 c 0.1,0 0.1,0 0.2,0 h 0.1 c 0.3,0.1 0.2,0 0.5,0.2 0.1,0.1 0.3,0.2 0.4,0.4 0.2,0.4 0.4,0.8 0.5,1.2 0.3,1.7 0.3,3.5 0,5.1 -0.2,1.6 2.1,2.3 2.4,0.7 0.5,-2.4 1.4,-5.4 3.4,-6.9 0.6,-0.4 1.3,-0.6 2,-0.6 0.1,0 0.2,0 0.2,0 v 0 c 0.1,0.1 0.3,0.2 0.4,0.3 0.9,0.8 1,1.9 1.6,2.9 2.3,4.7 8.8,6.6 13.4,4.4 3.1,-1.5 5.6,-4.3 7.6,-7.2 0.1,0.5 0.3,1 0.5,1.4 2.1,4.3 8.3,4.9 12.5,4.5 7.4,-0.9 14,-4.9 18.3,-11 0.9,-1.3 -1.3,-2.5 -2.2,-1.2 z m -17.5,-4.8 c 0.1,0 0.2,0 0.2,0 0,0 0,0.1 0,0.1 -0.1,0.6 -0.5,0.9 -1.1,1.5 -1.3,1.4 -2.9,2.4 -4.6,3.2 -0.8,0.3 -1.6,0.5 -2.5,0.5 1.8,-2.9 4.7,-4.9 8,-5.3 z"
         class="st3"
         inkscape:connector-curvature="0"
         style="fill:#5b5a59" />
      <path
         id="path1225"
         d="m 1924.7498,156.74566 c 0,0 0,0 0,0 v 0 c 0,0 0,0 0,0 z"
         class="st3"
         inkscape:connector-curvature="0"
         style="fill:#5b5a59" />
      <path
         id="path1227"
         d="M 1924.8498,156.74566 Z"
         class="st3"
         inkscape:connector-curvature="0"
         style="fill:#5b5a59" />
      <polygon
         id="polygon1229"
         points=""
         class="st3"
         style="fill:#5b5a59"
         transform="translate(64.649764,-94.95434)" />
      <path
         id="path1231"
         d="m 2023.0498,143.44566 c -3.8,3.5 -8.3,6.2 -13.2,7.9 -1.7,0.6 -3.6,0.9 -5.4,0.6 1,-1.9 1,-4.2 0,-6.1 -2.2,-4 -6.7,-3 -9.8,-0.7 -0.1,0.1 -0.1,0.1 -0.2,0.2 -0.1,0.1 -0.3,0.2 -0.4,0.3 -0.1,0.1 -0.1,0.2 -0.2,0.2 v 0 c -1.1,1.4 -2,2.9 -2.7,4.6 -1.6,2.7 -3.7,5.1 -6,7.1 -0.9,0.8 -1.9,1.4 -2.9,1.9 -0.4,0.1 -0.7,0.3 -1.1,0.4 -0.2,0.1 -0.5,0.1 -0.8,0.1 -0.1,0 -0.6,0 -0.6,0 l -0.3,-0.1 c -0.7,-0.6 -1.3,-1.3 -1.7,-2.1 -1.6,-3 -0.7,-6.9 0.6,-9.8 0.6,-1.3 1.1,-2.7 1.7,-4 0.3,-0.7 0.7,-1.4 1.2,-2.1 0.1,-0.1 0.2,-0.2 0.3,-0.3 1.4,-0.7 0.1,-2.8 -1.3,-2.1 -2.1,1.1 -4.3,1.9 -6.6,2.7 -1,0.3 -2.1,0.5 -3.1,0.8 -0.5,0.2 -0.9,0.5 -1.1,1 -0.8,1.1 -1.6,2.2 -2.6,3.2 -1.4,1.5 -2.9,2.8 -4.6,3.9 -3.7,2.4 -8.2,3.5 -12.6,3 -2.4,-0.1 -4.5,-1.4 -5.6,-3.5 -0.3,-0.6 -0.5,-1.3 -0.6,-2 0,0 0,-0.1 0,-0.1 v 0 c 0,-0.1 0,-0.2 0,-0.2 0,-0.2 0,-0.3 0,-0.5 0,-0.2 0,-0.2 0,-0.3 1.1,0.1 2.2,0.1 3.3,-0.2 1.8,-0.5 3.6,-1.3 5.1,-2.5 1.2,-0.7 2.2,-1.7 3,-2.8 0.7,-1 0.8,-2.3 0.3,-3.4 -0.9,-1.2 -2.4,-1.8 -3.9,-1.6 -1.7,0.3 -3.4,0.9 -4.8,1.8 -2.4,1.4 -4.3,3.7 -5.2,6.3 -2.9,3.2 -6.1,6.2 -9.6,8.9 -1.6,1.3 -3.4,2.3 -5.3,2.9 -0.4,0.1 -0.8,0.2 -1.2,0.1 -0.4,0 0.3,-0.1 -0.2,0 v 0 0 0 0 l 0.1,0.1 -0.1,-0.1 v 0 c -0.3,-0.2 -0.5,-0.4 -0.8,-0.6 -1,-1 -1.4,-2.4 -1,-3.7 0.6,-2.3 1.8,-4.4 3.4,-6.1 1.1,-1.2 -0.7,-3 -1.8,-1.8 -3.2,3.7 -6.8,7.1 -10.8,10 -1.8,1.4 -3.8,2.4 -6,2.9 h -0.2 -0.4 -0.5 c -0.2,0 -0.3,-0.1 -0.5,-0.1 v 0 l -0.1,-0.1 v 0 c 0,0 -0.1,-0.1 -0.1,-0.1 -0.3,-0.3 -0.5,-0.6 -0.7,-0.9 -0.4,-1.3 -0.2,-2.7 0.5,-3.8 0.5,-1.1 1.2,-2.1 1.9,-3.1 1,-1 1.9,-2 2.8,-3 0.5,-0.5 0.5,-1.3 0,-1.8 -0.5,-0.5 -1.3,-0.5 -1.8,0 -1,1 -2,2.1 -2.9,3.2 -2.1,2.2 -4.4,4.3 -6.9,6.1 -1.7,1.3 -3.7,2.3 -5.8,2.7 0,0 -0.4,0 -0.7,0 h -0.4 -0.1 l -0.5,-0.1 c -0.3,-0.1 0.3,0 -0.2,-0.1 h -0.1 v 0 c -0.9,-0.9 -1.3,-2.1 -1,-3.3 0.5,-2.5 1.5,-4.8 3,-6.9 0.3,-0.6 0.1,-1.4 -0.5,-1.7 -0.3,-0.2 -0.6,-0.2 -0.9,-0.1 -3.6,1.4 -7.9,2.2 -11.3,0 -0.8,-0.5 -1.5,-1.2 -2.1,-2 -0.2,-0.3 -0.4,-0.5 -0.5,-0.8 -0.2,-0.3 -0.3,-0.7 -0.1,-0.1 -0.2,-0.4 -0.6,-0.7 -1,-0.8 v 0 c -1.1,-2.3 -3.9,-3.5 -6.3,-3.7 -2.9,-0.3 -5.8,0.8 -7.9,2.9 -1.2,1.1 -2.1,2.6 -2.5,4.2 -0.4,1.8 0,4.4 1.4,5.8 1.1,1 2.5,1.4 4,1.3 2.1,-0.2 4,-1 5.6,-2.4 -0.9,2.4 -1.7,4.8 -2.5,7.1 -2.6,7.4 -4,15.2 -4.1,23 -0.1,2.6 -0.3,6.2 1.5,8.3 1,1.2 2.7,1.4 4.1,0.7 2.9,-1.5 4.1,-5.4 4.7,-8.3 0.4,-1.8 0.7,-3.7 1.1,-5.5 1.7,-9.4 2.5,-19 2.2,-28.6 0.4,0.3 0.7,0.6 1.1,0.8 3.1,2 6.8,2 10.2,1.2 -1.8,3.6 -3.2,8.5 0.3,10.8 2.7,1.8 6.6,0 9,-1.4 1.3,-0.8 2.6,-1.7 3.8,-2.7 -0.4,1.9 0.4,3.8 1.9,5 2.5,2 6.6,-0.1 8.9,-1.5 2.5,-1.6 4.8,-3.4 6.9,-5.4 -0.6,2.6 0.6,5.3 2.9,6.5 2.4,1.4 5.8,-0.6 7.8,-1.9 3.5,-2.3 6.6,-5.1 9.5,-8.1 0.1,0.6 0.2,1.1 0.4,1.6 0.8,2.2 2.5,4.1 4.7,5 2.5,1.1 5.1,0.9 7.8,0.8 7.4,-0.3 13.6,-5.4 17.7,-11.2 2.1,-0.4 4.1,-1 6.1,-1.9 -0.4,1 -0.8,2 -1.2,2.9 -1.6,3.4 -2.6,7.5 -1.4,11.1 0.7,2.2 2.3,4.8 4.8,5 2.1,0.1 4.1,-0.6 5.7,-1.8 1.9,-1.4 3.7,-3 5.1,-4.8 0.2,1.9 1.5,3.4 3.3,3.9 3.1,0.6 6.1,-1.4 8.1,-3.6 0.5,-0.5 0.9,-1.1 1.3,-1.6 3.8,0.8 7.7,-0.5 11.2,-2.1 3.9,-1.8 7.4,-4.1 10.5,-7 1.5,-1.1 -0.3,-2.8 -1.5,-1.8 z m -156.6,5 c -1,0.3 -2.1,0.2 -3,-0.4 0,0 -0.1,-0.1 -0.1,-0.3 -0.4,-0.8 -0.6,-1.7 -0.7,-2.6 0.1,-1.2 0.6,-2.4 1.4,-3.3 0.7,-0.8 1.6,-1.5 2.6,-2 0.7,-0.4 1.5,-0.6 2.3,-0.6 2,-0.1 4.4,0.5 5.6,2 -0.1,0.1 -0.1,0.1 -0.2,0.2 -1.8,2.7 -4.4,6.2 -7.9,7 z m 7.8,21.5 c -0.4,2.5 -0.8,5 -1.3,7.5 -0.5,2.5 -1,5.2 -2.6,7.2 -0.4,0.5 -0.9,0.9 -1.6,1.1 -0.4,0.1 0.2,0 -0.1,0 -0.1,0 -0.2,0 -0.3,0 0.5,0.1 0,0 -0.1,0 -1.5,-1.6 -1.2,-4.6 -1.1,-6.6 0,-7.1 1.2,-14.2 3.5,-21 1.4,-4.6 3.1,-9.2 5,-13.6 0.4,8.5 -0.1,17 -1.4,25.4 z m 32.1,-12.6 v 0 c 0,0 0.1,0.1 0,0 z m 41.4,-16.8 c 1.2,-0.8 2.6,-1.2 4,-1.4 1.3,0.1 1.1,0.6 0.6,1.5 -0.1,0.1 -0.1,0.2 -0.2,0.3 -0.4,0.3 -0.7,0.6 -1,0.9 -1,0.8 -2,1.4 -3.1,2 -1.3,0.7 -2.7,1.1 -4.1,1 v 0 c 0.7,-1.8 2.1,-3.3 3.8,-4.3 z m 52.6,5.1 c 0.3,0 0.6,0.1 0.8,0.3 v 0 c 0.3,0.2 0.5,0.4 0.7,0.7 1.2,1.4 0.9,3.2 0.1,4.7 -1.7,-0.7 -3.1,-1.8 -4.2,-3.2 -0.4,-0.5 -0.7,-0.9 -1,-1.4 1,-0.8 2.3,-1.2 3.6,-1.1 z m 0,8.1 c -1.5,1.8 -3.6,3.6 -6,3.4 -0.1,0 -0.3,0 -0.4,-0.1 -0.3,-0.2 -0.5,-0.4 -0.7,-0.6 -0.7,-1 -0.9,-2.3 -0.5,-3.4 0.1,-0.5 0.3,-1 0.5,-1.5 0.6,-0.9 1.1,-1.9 1.7,-2.8 1.3,2 3.2,3.6 5.3,4.7 l 0.2,0.1 z"
         class="st3"
         inkscape:connector-curvature="0"
         style="fill:#5b5a59" />
      <path
         id="path1233"
         d="m 2246.3498,96.14566 0.1,0.2 0.2,0.3 0.1,0.1 c -0.3,-0.6 -0.4,-0.7 -0.4,-0.6 z"
         class="st1"
         inkscape:connector-curvature="0"
         style="fill:#fcc301" />
      <path
         id="path1235"
         d="m 2242.7498,85.24566 c 0.1,0.5 0.2,1.1 0,0 z"
         class="st1"
         inkscape:connector-curvature="0"
         style="fill:#fcc301" />
      <path
         id="path1237"
         d="m 2269.5498,98.54566 v 0 c 0.2,-0.1 0.3,-0.2 0.5,-0.3 l 0.1,-0.1 c -0.6,0.2 -0.7,0.4 -0.6,0.4 z"
         class="st1"
         inkscape:connector-curvature="0"
         style="fill:#fcc301" />
      <path
         id="path1239"
         d="m 2272.9498,94.04566 v 0 c 0.1,-0.3 0.1,-0.5 0.2,-0.6 0.1,-0.1 0,-0.1 -0.2,0.6 z"
         class="st1"
         inkscape:connector-curvature="0"
         style="fill:#fcc301" />
      <path
         id="path1241"
         d="m 2299.8498,66.94566 h -1.8 v -6.7 c 0,-3.2 -5,-3.2 -5,0 v 6.7 h -1.6 v -6.7 c 0,-3.2 -5,-3.2 -5,0 v 6.7 h -3.7 c -1.2,-1.9 -3.5,-2.9 -5.7,-2.3 -1.3,0.4 -2.3,1.2 -3,2.3 h -32 v 0 c -0.7,-1.1 -1.7,-1.9 -3,-2.3 -2,-0.5 -4.7,0.4 -5.8,2.3 h -2.6 v -6.7 c 0,-3.2 -5,-3.2 -5,0 v 6.7 h -2.3 v -6.7 c 0,-3.2 -5,-3.2 -5,0 v 6.7 h -1.8 c -3.2,0 -3.2,5 0,5 h 1.8 v 6.8 c 0,3.2 5,3.2 5,0 v -6.8 h 2.3 v 6.8 c 0,3.2 5,3.2 5,0 v -6.8 h 1.8 c -0.3,3 -0.3,5.9 -0.2,8.9 0.3,7.2 1.5,15.3 6,21.3 2.2,3 5.2,5.4 8.7,6.8 v 24.3 c 0,0.1 0,0.2 0,0.4 v 29.1 c 0,2.8 2.2,5 5,5 2.8,0 5,-2.2 5,-5 v -23.1 h 2.7 v 22.8 c 0,2.8 2.2,5 5,5 2.8,0 5,-2.2 5,-5 v -24.9 c 0.1,-0.2 0.1,-0.5 0.1,-0.7 v -27.3 c 7.4,-2.2 12.2,-8.7 14,-16.2 1.6,-6.8 1.2,-13.9 0.2,-20.8 l -0.1,-0.4 h 2.5 v 6.8 c 0,3.2 5,3.2 5,0 v -6.8 h 1.6 v 6.8 c 0,3.2 5,3.2 5,0 v -6.8 h 1.8 c 3.3,-0.2 3.3,-5.2 0.1,-5.2 z m -25.7,6.9 c 0.1,0.4 0.1,0.9 0.2,1.3 0.1,0.4 0.1,0.6 0.1,0.9 0.2,1.4 0.3,2.8 0.3,4.2 0.1,1.5 0.1,3 0,4.6 0,0.8 -0.1,1.6 -0.2,2.5 0,0.2 -0.1,0.5 -0.1,0.7 l -0.1,0.6 c -0.3,1.5 -0.6,3.1 -1.1,4.6 l -0.1,0.3 c 0,0.1 -0.1,0.3 -0.1,0.4 0,0.1 0,0.1 -0.1,0.2 0,0.1 -0.1,0.1 -0.1,0.2 0,0 0,-0.1 0,-0.1 0,0.1 -0.1,0.1 -0.1,0.2 -0.3,0.7 -0.7,1.4 -1.2,2 -0.1,0.1 -0.1,0.2 -0.2,0.3 -0.2,0.3 -0.5,0.6 -0.8,0.9 -0.3,0.3 -0.4,0.4 -0.7,0.6 l 0.2,-0.1 c -0.1,0 -0.2,0.1 -0.3,0.2 l -0.2,0.1 c -0.1,0.1 -0.2,0.1 -0.3,0.2 -0.3,0.2 -0.7,0.4 -1.1,0.6 l -0.4,0.2 c -0.9,0.3 -1.9,0.6 -2.9,0.8 h -0.2 -2.1 c 6.1,-2.1 9.4,-8.8 7.2,-14.9 -2.1,-6.1 -8.8,-9.4 -14.9,-7.2 -6.1,2.1 -9.4,8.8 -7.2,14.9 1.2,3.4 3.8,6 7.2,7.2 h -2.4 -0.2 c -0.8,-0.2 -1.6,-0.4 -2.4,-0.6 h -0.1 c -0.4,-0.2 -0.8,-0.4 -1.2,-0.6 -0.4,-0.2 -0.5,-0.3 -0.7,-0.5 l -0.3,-0.2 c -0.5,-0.4 -0.9,-0.8 -1.3,-1.3 l 0.1,0.1 c 0,-0.1 -0.1,-0.2 -0.2,-0.2 l -0.1,-0.2 c -0.1,-0.1 -0.1,-0.2 -0.2,-0.3 -0.2,-0.2 -0.3,-0.5 -0.5,-0.8 -0.4,-0.7 -0.8,-1.4 -1.1,-2.2 v -0.1 c -0.1,-0.4 -0.3,-0.7 -0.4,-1.1 -0.3,-0.8 -0.5,-1.6 -0.7,-2.4 -0.4,-1.6 -0.6,-3.2 -0.9,-4.8 0,0.1 0,0.2 0.1,0.2 0,-0.1 0,-0.2 0,-0.3 -0.1,-0.4 -0.1,-0.8 -0.1,-1.1 -0.1,-0.8 -0.1,-1.6 -0.2,-2.4 -0.1,-2.6 -0.1,-5.3 0.1,-7.9 0,-0.5 0.1,-1 0.1,-1.5 h 31.3 c 0.4,0.5 0.5,1.1 0.6,1.8 z"
         class="st1"
         inkscape:connector-curvature="0"
         style="fill:#fcc301" />
      <path
         id="path1243"
         d="m 2076.7498,74.94566 c 0,0 -3.2,-2.9 1.7,-7.3 0,0 4.1,-3.5 7.2,0 l 13.4,18.1 c 0,0 2,1.9 0.8,3.6 0,0 -0.9,1.6 -4.6,-0.7 -3.7,-2.3 -7.6,-5.5 -7.6,-5.5 l 1.7,-2.3 c 0.4,-0.6 0.3,-1.5 -0.3,-1.9 0,0 -0.1,0 -0.1,-0.1 -0.8,-0.4 -1.8,-0.2 -2.3,0.5 l -2,2 -1.3,-1.3 2.3,-2.2 c 0,0 1.8,-1.5 0.1,-2.9 0,0 -1.3,-1 -2.5,0.7 l -2.4,2.6 -1.5,-1.4 2.6,-3 c 0.8,-0.6 1,-1.8 0.4,-2.6 -0.1,-0.1 -0.2,-0.2 -0.3,-0.3 0,0 -0.9,-1.2 -2.8,0.8 z"
         class="st0"
         inkscape:connector-curvature="0"
         style="fill:#4ead33" />
      <path
         id="path1245"
         d="m 2078.4498,66.24566 c -0.1,-0.2 -0.2,-0.4 -0.4,-0.5 -0.1,-0.2 -0.2,-0.3 -0.3,-0.5 -1.7,-1.5 -2.8,-3.4 -3.4,-5.6 -0.2,-0.8 -0.4,-1.7 -0.6,-2.5 0,-0.1 0,-0.3 -0.1,-0.4 v 0 c 0,-0.1 0,-0.2 0,-0.3 0,-0.7 -0.6,-1.2 -1.2,-1.2 -0.6,0 -1.2,0.6 -1.2,1.2 0.1,1.2 0.4,2.4 0.7,3.6 l -0.2,-0.2 c -0.4,-0.7 -0.8,-1.4 -1.1,-2.2 -0.3,-0.6 -1.1,-0.8 -1.7,-0.4 -0.6,0.4 -0.8,1.1 -0.4,1.7 v 0 c 1.1,2.6 2.8,4.9 5,6.7 l 0.4,0.3 c -0.6,0.1 -1.2,0.1 -1.8,0.2 -0.6,0.1 -1.3,0.1 -2,0.1 -0.7,0 -1.2,0.6 -1.2,1.2 0,0.6 0.6,1.2 1.2,1.2 2.5,-0.1 5,-0.4 7.5,-0.9 0.6,-0.2 1,-0.9 0.8,-1.5 z"
         class="st0"
         inkscape:connector-curvature="0"
         style="fill:#4ead33" />
      <path
         id="path1247"
         d="m 2147.5498,91.84566 c -8.2,-8.5 -17.1,-10.9 -24.4,-11 l 0.1,-12.4 c 0,-1 0,-2 0,-2.9 1.2,0.8 2.6,1.1 4.1,0.9 3.1,-0.5 5.5,-2.9 7,-5.5 1.6,-2.9 2.6,-6.1 3,-9.5 0,0 0,0 0,-0.1 0,-0.1 0,-0.1 0,-0.1 0,-0.3 -0.1,-0.5 -0.4,-0.6 0,0 -0.1,0 -0.1,0 -0.1,0 -0.2,0 -0.3,0 -4.2,0.7 -8.3,2.1 -12,4.4 -2,1.3 -4.1,3.3 -4,6 0.1,1.3 0.6,2.5 1.5,3.4 -0.1,0.8 0,1.8 0,2.5 0,2.3 0,4.6 -0.1,6.9 -0.1,-0.2 -0.3,-0.5 -0.4,-0.7 1,-2.3 -0.3,-4.9 -2.1,-6.5 -2.1,-1.9 -4.7,-3.1 -7.5,-3.5 -0.7,-0.1 -1.3,-0.2 -2,-0.2 -0.3,0 -0.6,0.3 -0.6,0.6 0,0.1 0,0.1 0,0.2 1,3.3 2.3,7 4.7,9.6 1,1.2 2.6,1.9 4.2,1.8 0.9,0 1.8,-0.3 2.5,-0.9 0.5,0.7 0.9,1.5 1.2,2.3 v 4.5 c -4.8,0.1 -9.6,1.2 -14,3.3 l 42.5,40.5 -54.4,-30 c -2.7,4.9 -4.8,10.1 -6.3,15.5 -2.1,3.8 -4.4,7.4 -6.9,10.8 -1.6,1.6 -1.3,2.6 -1.3,2.6 -0.4,3.7 7.3,4.2 7.3,4.2 -0.7,15.4 1.3,18.9 1.3,18.9 1.5,5.5 12.3,3.5 12.3,3.5 5.1,-1.1 7.5,4.9 7.5,4.9 v 11.7 h 31.7 v -27.6 c 4.4,-3.7 8,-8.2 10.8,-13.2 10,-18.6 -4.9,-34.3 -4.9,-34.3 z m -27.7,-18.6 c -0.4,0.3 -0.9,0.5 -1.5,0.5 -0.7,0 -1.4,-0.1 -2.1,-0.3 l -0.1,-0.1 -0.2,-0.1 -0.1,-0.1 h -0.1 v 0 c -0.3,-0.2 -0.5,-0.4 -0.7,-0.7 -0.7,-0.8 -1.4,-1.7 -1.9,-2.7 -0.8,-1.5 -1.5,-3.1 -2,-4.7 3,1.8 5.7,4.2 8,6.9 0.3,0.4 0.6,0.8 0.9,1.1 z m 0.8,-1.5 c -2.3,-2.9 -5,-5.4 -8.1,-7.3 0.6,0.1 1.1,0.3 1.7,0.5 1.2,0.4 2.4,1 3.5,1.8 0.6,0.5 1.1,1 1.6,1.5 0.2,0.2 0.3,0.4 0.4,0.6 0.6,0.8 0.9,1.9 0.9,2.9 z m 15.1,-18.3 c -0.4,1.7 -0.9,3.4 -1.6,5 -1.1,2.6 -2.8,5 -5.4,6.3 -1.6,0.9 -3.5,0.7 -5,-0.3 -0.2,-0.1 -0.3,-0.3 -0.5,-0.4 v -0.1 -0.1 c 0.1,-0.2 0.2,-0.5 0.4,-0.7 0.5,-0.8 1.1,-1.6 1.7,-2.3 3,-3.3 6.5,-6.1 10.4,-8.3 0.1,0.3 0,0.6 0,0.9 z m -13.9,8.2 c -0.6,-2.3 1.3,-4.2 3,-5.4 2.6,-1.7 5.5,-2.9 8.5,-3.6 -2.9,1.8 -5.5,3.9 -7.9,6.4 -1.2,1.1 -2.2,2.4 -3,3.8 -0.3,-0.3 -0.5,-0.8 -0.6,-1.2 z"
         class="st0"
         inkscape:connector-curvature="0"
         style="fill:#4ead33" />
      <circle
         id="circle1249"
         r="1.4"
         cy="58.145664"
         cx="2115.0496"
         class="st4"
         style="fill:none;stroke:#4ead33;stroke-miterlimit:10" />
      <circle
         id="circle1251"
         r="1.3"
         cy="65.945656"
         cx="2140.0496"
         class="st4"
         style="fill:none;stroke:#4ead33;stroke-miterlimit:10" />
      <circle
         id="circle1253"
         r="1.4"
         cy="76.745659"
         cx="2100.0498"
         class="st4"
         style="fill:none;stroke:#4ead33;stroke-miterlimit:10" />
      <circle
         id="circle1255"
         r="0.89999998"
         cy="76.545662"
         cx="2107.6497"
         class="st0"
         style="fill:#4ead33" />
      <circle
         id="circle1257"
         r="1"
         cy="77.445656"
         cx="2140.8496"
         class="st0"
         style="fill:#4ead33" />
      <path
         id="path1259"
         d="m 2122.6498,48.64566 h -2.3 v -2.6 c 0,-0.7 -0.6,-1.2 -1.2,-1.2 -0.6,0 -1.2,0.6 -1.2,1.2 v 2.5 h -2.5 c -0.7,0 -1.2,0.6 -1.2,1.2 0,0.7 0.6,1.2 1.2,1.2 h 2.5 v 2.6 c 0,0.7 0.6,1.2 1.2,1.2 0.7,0 1.2,-0.6 1.2,-1.2 v -2.6 h 2.3 c 0.7,0 1.2,-0.6 1.2,-1.2 0,-0.6 -0.5,-1.1 -1.2,-1.1 z"
         class="st0"
         inkscape:connector-curvature="0"
         style="fill:#4ead33" />
      <path
         id="path1261"
         d="m 2136.5498,70.74566 h -1.2 v -1.4 c 0,-0.7 -0.6,-1.2 -1.2,-1.2 -0.6,0 -1.2,0.6 -1.2,1.2 v 1.4 h -1.3 c -0.7,0 -1.2,0.6 -1.2,1.2 0,0.7 0.6,1.2 1.2,1.2 h 1.3 v 1.4 c 0,0.7 0.6,1.2 1.2,1.2 0.6,0 1.2,-0.6 1.2,-1.2 v -1.4 h 1.2 c 0.7,0 1.2,-0.6 1.2,-1.2 0,-0.6 -0.5,-1.2 -1.2,-1.2 z"
         class="st0"
         inkscape:connector-curvature="0"
         style="fill:#4ead33" />
      <path
         id="path1263"
         d="m 2105.2498,68.34566 h -0.6 v -0.7 c 0,-0.7 -0.6,-1.2 -1.2,-1.2 -0.7,0 -1.2,0.6 -1.2,1.2 v 0.7 h -0.6 c -0.7,0 -1.2,0.6 -1.2,1.2 0,0.6 0.6,1.2 1.2,1.2 h 0.6 v 0.7 c 0,0.7 0.6,1.2 1.2,1.2 0.6,0 1.2,-0.6 1.2,-1.2 v -0.8 h 0.6 c 0.7,0 1.2,-0.6 1.2,-1.2 0,-0.6 -0.5,-1.2 -1.2,-1.1 z"
         class="st0"
         inkscape:connector-curvature="0"
         style="fill:#4ead33" />
      <path
         id="path1265"
         d="m 2149.8498,-33.45434 c -3.5,-3.5 -3.6,-9.2 -0.2,-12.8 0,0 5.9,5.5 0.2,12.8 z"
         class="st2"
         inkscape:connector-curvature="0"
         style="fill:#e51560" />
      <path
         id="path1267"
         d="m 2158.4498,-35.45434 c -7.7,0.7 -8.7,6.9 -8.9,8.7 -1.3,-8.6 -9.1,-8.4 -9.1,-8.4 0.1,5 4.2,8.9 9.2,8.9 0,0 0,0 0,-0.1 9.1,-1.1 8.8,-9.1 8.8,-9.1 z"
         class="st2"
         inkscape:connector-curvature="0"
         style="fill:#e51560" />
      <path
         id="path1269"
         d="m 2158.4498,-26.65434 c -7.7,0.7 -8.7,6.9 -8.9,8.7 -1.3,-8.6 -9.1,-8.4 -9.1,-8.4 0.2,5 4.2,8.9 9.2,8.9 v 0 c 9.1,-1.2 8.8,-9.2 8.8,-9.2 z"
         class="st2"
         inkscape:connector-curvature="0"
         style="fill:#e51560" />
      <path
         id="path1271"
         d="m 2247.7498,-26.15434 -11,2.9 -26.4,6.9 -31.9,8.3999995 -27.7,7.30000004 h -0.2 V -9.2543405 c 4.6,-0.6 8,-4.3999995 8,-8.9999995 -7,0.6 -8.5,5.8 -8.8,8.1 h -0.2 c -0.7,-4.5 -4.5,-7.7 -9,-7.7 0.6,6.9 5.6,8.3999995 7.9,8.7999995 v 9.00000004 c -3.7,1 -7.5,1.79999996 -11.2,2.99999996 h -0.2 c -3.1,0.8 -1.8,5.6 1.3,4.8 l 11,-2.9 26.4,-6.9 14.4,-3.8 c -3.2,5.80000004 -15.4,25.2000005 -23.6,38.2000005 l -2,3.1 h 59.5 l -29,-42.6000005 12.7,-3.2999995 27.7,-7.3 c 4.5,-1.2 9,-2.2 13.4,-3.5 l 0.2,-0.1 c 3.1,-0.8 1.8,-5.6 -1.3,-4.8 z m -31.3,57.6 h -44.6 c 4.9,-7.8 16.9,-26.7000005 21.2,-34.3000005 z"
         class="st2"
         inkscape:connector-curvature="0"
         style="fill:#e51560" />
      <path
         id="path1273"
         d="m 2238.2498,-47.25434 c -3.5,-3 -8.6,-1.6 -10.8,-0.9 0,-0.5 0.1,-1 0.1,-1.6 0,0 0,-0.1 0,-0.1 2.4,-1.1 8.7,-4.3 11.4,-9 0,0 -8.7,-1.7 -11.6,5.9 v 0 c -0.1,-1.1 -0.3,-2.2 -0.6,-3.3 -0.2,-0.5 -0.3,-1.1 -0.5,-1.6 -0.1,-0.3 -0.2,-0.6 -0.4,-0.8 -0.1,-0.3 -0.3,-0.6 -0.5,-0.9 l -2.9,2.3 c 0.1,0.1 0.2,0.3 0.4,0.4 0.1,0.2 0.3,0.4 0.4,0.5 0.3,0.4 0.5,0.8 0.7,1.2 0.5,0.9 0.8,1.8 1.2,2.7 0.3,0.9 0.6,1.9 0.8,2.9 0.1,0.6 0.2,1.2 0.3,1.7 -4.1,-1.2 -9.4,-1.8 -12.2,2.2 -2.9,4.2 -1.8,9.9 0.7,13.9 1.6,2.7 3.4,5.4 6.1,7.2 1.4,1 3,1.5 4.7,1.5 0.4,0 1.4,-0.5 1.8,-0.4 7.5,2.2 13.1,-10.2 13.1,-10.2 4.5,-8.6 -2.2,-13.6 -2.2,-13.6 z"
         class="st2"
         inkscape:connector-curvature="0"
         style="fill:#e51560" />
      <path
         id="path1275"
         d="m 2190.9498,66.84566 c -44.7,0 -80.9,-36.2 -80.9,-80.9 0,-44.7 36.2,-80.9 80.9,-80.9 44.7,0 80.9,36.2 80.9,80.9 0,0 0,0 0,0 0,44.7 -36.2,80.9 -80.9,80.9 z m 0,-158.8 c -43,0 -77.9,34.9 -77.9,77.9 0,43 34.9,77.9 77.9,77.9 43,0 77.9,-34.9 77.9,-77.9 0,0 0,0 0,0 0,-43 -34.9,-77.9 -77.9,-77.9 z"
         class="st2"
         inkscape:connector-curvature="0"
         style="fill:#e51560" />
    </g>
  </g>
</svg>
